<svg xmlns="http://www.w3.org/2000/svg" width="1120" height="410" viewBox="0 0 1120 410" role="img" aria-labelledby="chart-title chart-desc">
  <title id="chart-title">GitHub contribution activity</title>
  <desc id="chart-desc">740 contributions across 250 active days in the last 365 days.</desc>
  <defs>
    <linearGradient id="chart-bg" x1="0" y1="0" x2="0" y2="1">
      <stop offset="0" stop-color="#111821" stop-opacity="0.72"/>
      <stop offset="1" stop-color="#0d1117" stop-opacity="1"/>
    </linearGradient>
    <linearGradient id="daily-area" x1="0" y1="0" x2="0" y2="1">
      <stop offset="0" stop-color="#39d353" stop-opacity="0.23"/>
      <stop offset="0.58" stop-color="#39d353" stop-opacity="0.07"/>
      <stop offset="1" stop-color="#39d353" stop-opacity="0"/>
    </linearGradient>
    <filter id="point-glow" x="-300%" y="-300%" width="700%" height="700%">
      <feGaussianBlur stdDeviation="3.5" result="blur"/>
      <feMerge><feMergeNode in="blur"/><feMergeNode in="SourceGraphic"/></feMerge>
    </filter>
  </defs>
  <rect x="0.5" y="0.5" width="1119" height="409" rx="18" fill="url(#chart-bg)" stroke="none"/>
  <g font-family="-apple-system,BlinkMacSystemFont,'Segoe UI',sans-serif">
    <text x="70" y="34" fill="#f0f6fc" font-size="20" font-weight="700" letter-spacing="-0.25">GitHub contribution activity</text>
    <text x="70" y="58" fill="#8b949e" font-size="12">@newbie-del · Sep 27, 2025 → Sep 26, 2026</text>
    <text x="70" y="78" fill="#8b949e" font-size="12" opacity="0.94">365 days · 740 contributions · 250 active days · peak 33</text>
    <g transform="translate(896,30)" font-size="12" fill="#8b949e">
      <line x1="0" y1="0" x2="25" y2="0" stroke="#39d353" stroke-width="2.6" stroke-linecap="round"/>
      <text x="33" y="4">Daily</text>
      <line x1="92" y1="0" x2="117" y2="0" stroke="#58a6ff" stroke-width="1.7" stroke-dasharray="5 6" stroke-linecap="round" opacity="0.72"/>
      <text x="125" y="4">7d trend</text>
    </g>
    <line x1="70" y1="116.00" x2="1078" y2="116.00" stroke="#21262d" stroke-width="1" opacity="0.52"/>
    <text x="56" y="120.00" fill="#8b949e" font-size="12" text-anchor="end" opacity="0.82">38</text>
    <line x1="70" y1="193.33" x2="1078" y2="193.33" stroke="#21262d" stroke-width="1" opacity="0.52"/>
    <text x="56" y="197.33" fill="#8b949e" font-size="12" text-anchor="end" opacity="0.82">25</text>
    <line x1="70" y1="270.67" x2="1078" y2="270.67" stroke="#21262d" stroke-width="1" opacity="0.52"/>
    <text x="56" y="274.67" fill="#8b949e" font-size="12" text-anchor="end" opacity="0.82">13</text>
    <line x1="70" y1="348.00" x2="1078" y2="348.00" stroke="#21262d" stroke-width="1" opacity="0.9"/>
    <text x="56" y="352.00" fill="#8b949e" font-size="12" text-anchor="end" opacity="0.82">0</text>
    <path d="M 70.00 348.00 C 70.50 346.89, 71.77 341.83, 72.77 341.83 C 73.77 341.83, 74.54 348.00, 75.54 348.00 C 76.54 344.67, 77.31 323.33, 78.31 323.33 C 79.30 323.33, 80.08 344.67, 81.08 348.00 C 82.07 348.00, 82.85 341.83, 83.85 341.83 C 84.84 341.83, 85.62 346.89, 86.62 348.00 C 87.61 348.00, 88.39 348.00, 89.38 348.00 C 90.38 345.78, 91.16 336.78, 92.15 335.67 C 93.15 335.67, 93.93 339.61, 94.92 341.83 C 95.92 344.05, 96.70 348.00, 97.69 348.00 C 98.69 348.00, 99.46 344.05, 100.46 341.83 C 101.46 339.61, 102.23 337.89, 103.23 335.67 C 104.23 333.45, 105.00 329.50, 106.00 329.50 C 107.00 330.61, 107.77 340.72, 108.77 341.83 C 109.77 341.83, 110.54 335.67, 111.54 335.67 C 112.54 335.67, 113.31 340.72, 114.31 341.83 C 115.30 341.83, 116.08 341.83, 117.08 341.83 C 118.07 341.83, 118.85 341.83, 119.85 341.83 C 120.84 340.72, 121.62 335.67, 122.62 335.67 C 123.61 335.67, 124.39 341.83, 125.38 341.83 C 126.38 341.83, 127.16 335.67, 128.15 335.67 C 129.15 335.67, 129.93 339.61, 130.92 341.83 C 131.92 344.05, 132.70 348.00, 133.69 348.00 C 134.69 348.00, 135.46 344.05, 136.46 341.83 C 137.46 339.61, 138.23 335.67, 139.23 335.67 C 140.23 335.67, 141.00 340.72, 142.00 341.83 C 143.00 341.83, 143.77 341.83, 144.77 341.83 C 145.77 341.83, 146.54 341.83, 147.54 341.83 C 148.54 341.83, 149.31 341.83, 150.31 341.83 C 151.30 340.72, 152.08 335.67, 153.08 335.67 C 154.07 336.78, 154.85 345.78, 155.85 348.00 C 156.84 348.00, 157.62 348.00, 158.62 348.00 C 159.61 348.00, 160.39 348.00, 161.38 348.00 C 162.38 346.89, 163.16 342.94, 164.15 341.83 C 165.15 341.83, 165.93 341.83, 166.92 341.83 C 167.92 341.83, 168.70 341.83, 169.69 341.83 C 170.69 342.94, 171.46 348.00, 172.46 348.00 C 173.46 346.89, 174.23 337.89, 175.23 335.67 C 176.23 335.67, 177.00 335.67, 178.00 335.67 C 179.00 337.89, 179.77 346.89, 180.77 348.00 C 181.77 348.00, 182.54 342.94, 183.54 341.83 C 184.54 341.83, 185.31 341.83, 186.31 341.83 C 187.30 341.83, 188.08 341.83, 189.08 341.83 C 190.07 342.94, 190.85 348.00, 191.85 348.00 C 192.84 348.00, 193.62 342.94, 194.62 341.83 C 195.61 341.83, 196.39 341.83, 197.38 341.83 C 198.38 336.28, 199.16 312.11, 200.15 311.00 C 201.15 311.00, 201.93 330.12, 202.92 335.67 C 203.92 341.22, 204.70 340.72, 205.69 341.83 C 206.69 341.83, 207.46 341.83, 208.46 341.83 C 209.46 341.83, 210.23 341.83, 211.23 341.83 C 212.23 342.94, 213.00 348.00, 214.00 348.00 C 215.00 348.00, 215.77 344.05, 216.77 341.83 C 217.77 339.61, 218.54 339.00, 219.54 335.67 C 220.54 332.34, 221.31 323.33, 222.31 323.33 C 223.30 324.44, 224.08 338.50, 225.08 341.83 C 226.07 341.83, 226.85 341.83, 227.85 341.83 C 228.84 341.83, 229.62 341.83, 230.62 341.83 C 231.61 341.83, 232.39 341.83, 233.38 341.83 C 234.38 341.83, 235.16 341.83, 236.15 341.83 C 237.15 339.61, 237.93 329.50, 238.92 329.50 C 239.92 330.61, 240.70 344.67, 241.69 348.00 C 242.69 348.00, 243.46 348.00, 244.46 348.00 C 245.46 346.89, 246.23 342.94, 247.23 341.83 C 248.23 341.83, 249.00 341.83, 250.00 341.83 C 251.00 340.72, 251.77 335.67, 252.77 335.67 C 253.77 335.67, 254.54 341.83, 255.54 341.83 C 256.54 341.83, 257.31 335.67, 258.31 335.67 C 259.30 335.67, 260.08 340.72, 261.08 341.83 C 262.07 341.83, 262.85 341.83, 263.85 341.83 C 264.84 340.72, 265.62 335.67, 266.62 335.67 C 267.61 335.67, 268.39 339.61, 269.38 341.83 C 270.38 344.05, 271.16 346.89, 272.15 348.00 C 273.15 348.00, 273.93 348.00, 274.92 348.00 C 275.92 348.00, 276.70 348.00, 277.69 348.00 C 278.69 346.89, 279.46 342.94, 280.46 341.83 C 281.46 341.83, 282.23 341.83, 283.23 341.83 C 284.23 337.39, 285.00 317.17, 286.00 317.17 C 287.00 317.17, 287.77 336.28, 288.77 341.83 C 289.77 347.38, 290.54 348.00, 291.54 348.00 C 292.54 345.78, 293.31 329.50, 294.31 329.50 C 295.30 329.50, 296.08 345.78, 297.08 348.00 C 298.07 348.00, 298.85 342.94, 299.85 341.83 C 300.84 341.83, 301.62 341.83, 302.62 341.83 C 303.61 342.94, 304.39 348.00, 305.38 348.00 C 306.38 346.89, 307.16 336.78, 308.15 335.67 C 309.15 335.67, 309.93 341.83, 310.92 341.83 C 311.92 340.72, 312.70 329.50, 313.69 329.50 C 314.69 330.61, 315.46 345.78, 316.46 348.00 C 317.46 348.00, 318.23 344.05, 319.23 341.83 C 320.23 339.61, 321.00 336.78, 322.00 335.67 C 323.00 335.67, 323.77 335.67, 324.77 335.67 C 325.77 337.89, 326.54 345.78, 327.54 348.00 C 328.54 348.00, 329.31 348.00, 330.31 348.00 C 331.30 346.89, 332.08 341.83, 333.08 341.83 C 334.07 341.83, 334.85 348.00, 335.85 348.00 C 336.84 345.78, 337.62 332.83, 338.62 329.50 C 339.61 329.50, 340.39 329.50, 341.38 329.50 C 342.38 323.95, 343.16 298.66, 344.15 298.66 C 345.15 300.88, 345.93 334.06, 346.92 341.83 C 347.92 341.83, 348.70 341.83, 349.69 341.83 C 350.69 340.72, 351.46 335.67, 352.46 335.67 C 353.46 336.78, 354.23 348.00, 355.23 348.00 C 356.23 346.89, 357.00 332.83, 358.00 329.50 C 359.00 329.50, 359.77 329.50, 360.77 329.50 C 361.77 332.83, 362.54 345.78, 363.54 348.00 C 364.54 348.00, 365.31 342.94, 366.31 341.83 C 367.30 341.83, 368.08 341.83, 369.08 341.83 C 370.07 342.94, 370.85 348.00, 371.85 348.00 C 372.84 348.00, 373.62 348.00, 374.62 341.83 C 375.61 335.17, 376.39 311.00, 377.38 311.00 C 378.38 312.11, 379.16 341.34, 380.15 348.00 C 381.15 348.00, 381.93 348.00, 382.92 348.00 C 383.92 334.68, 384.70 277.33, 385.69 274.00 C 386.69 274.00, 387.46 322.84, 388.46 329.50 C 389.46 329.50, 390.23 311.00, 391.23 311.00 C 392.23 314.33, 393.00 341.34, 394.00 348.00 C 395.00 348.00, 395.77 348.00, 396.77 348.00 C 397.77 346.89, 398.54 342.94, 399.54 341.83 C 400.54 341.83, 401.31 341.83, 402.31 341.83 C 403.30 342.94, 404.08 348.00, 405.08 348.00 C 406.07 348.00, 406.85 342.94, 407.85 341.83 C 408.84 341.83, 409.62 341.83, 410.62 341.83 C 411.61 340.72, 412.39 335.67, 413.38 335.67 C 414.38 335.67, 415.16 340.72, 416.15 341.83 C 417.15 341.83, 417.93 341.83, 418.92 341.83 C 419.92 342.94, 420.70 346.89, 421.69 348.00 C 422.69 348.00, 423.46 348.00, 424.46 348.00 C 425.46 346.89, 426.23 342.94, 427.23 341.83 C 428.23 341.83, 429.00 341.83, 430.00 341.83 C 431.00 339.61, 431.77 329.50, 432.77 329.50 C 433.77 330.61, 434.54 345.78, 435.54 348.00 C 436.54 348.00, 437.31 341.83, 438.31 341.83 C 439.30 341.83, 440.08 346.89, 441.08 348.00 C 442.07 348.00, 442.85 348.00, 443.85 348.00 C 444.84 346.89, 445.62 342.94, 446.62 341.83 C 447.61 341.83, 448.39 341.83, 449.38 341.83 C 450.38 342.94, 451.16 348.00, 452.15 348.00 C 453.15 348.00, 453.93 344.05, 454.92 341.83 C 455.92 339.61, 456.70 336.78, 457.69 335.67 C 458.69 335.67, 459.46 335.67, 460.46 335.67 C 461.46 330.12, 462.23 304.83, 463.23 304.83 C 464.23 307.05, 465.00 345.78, 466.00 348.00 C 467.00 348.00, 467.77 320.50, 468.77 317.17 C 469.77 317.17, 470.54 323.95, 471.54 329.50 C 472.54 335.05, 473.31 345.78, 474.31 348.00 C 475.30 348.00, 476.08 341.83, 477.08 341.83 C 478.07 341.83, 478.85 346.89, 479.85 348.00 C 480.84 348.00, 481.62 348.00, 482.62 348.00 C 483.61 348.00, 484.39 348.00, 485.38 348.00 C 486.38 346.89, 487.16 341.83, 488.15 341.83 C 489.15 341.83, 489.93 348.00, 490.92 348.00 C 491.92 345.78, 492.70 330.61, 493.69 329.50 C 494.69 329.50, 495.46 338.50, 496.46 341.83 C 497.46 345.16, 498.23 348.00, 499.23 348.00 C 500.23 346.89, 501.00 335.67, 502.00 335.67 C 503.00 335.67, 503.77 348.00, 504.77 348.00 C 505.77 348.00, 506.54 337.89, 507.54 335.67 C 508.54 335.67, 509.31 335.67, 510.31 335.67 C 511.30 336.78, 512.08 339.61, 513.08 341.83 C 514.07 344.05, 514.85 348.00, 515.85 348.00 C 516.84 346.89, 517.62 339.00, 518.62 335.67 C 519.61 332.34, 520.39 329.50, 521.38 329.50 C 522.38 330.61, 523.16 339.61, 524.15 341.83 C 525.15 341.83, 525.93 341.83, 526.92 341.83 C 527.92 339.61, 528.70 331.72, 529.69 329.50 C 530.69 329.50, 531.46 329.50, 532.46 329.50 C 533.46 332.83, 534.23 345.78, 535.23 348.00 C 536.23 348.00, 537.00 344.05, 538.00 341.83 C 539.00 339.61, 539.77 337.89, 540.77 335.67 C 541.77 333.45, 542.54 331.72, 543.54 329.50 C 544.54 327.28, 545.31 326.66, 546.31 323.33 C 547.30 320.00, 548.08 311.00, 549.08 311.00 C 550.07 311.00, 550.85 316.67, 551.85 323.33 C 552.84 329.99, 553.62 344.67, 554.62 348.00 C 555.61 348.00, 556.39 342.94, 557.38 341.83 C 558.38 341.83, 559.16 341.83, 560.15 341.83 C 561.15 337.39, 561.93 326.05, 562.92 317.17 C 563.92 308.28, 564.70 292.50, 565.69 292.50 C 566.69 295.83, 567.46 329.01, 568.46 335.67 C 569.46 335.67, 570.23 335.67, 571.23 329.50 C 572.23 320.62, 573.00 289.66, 574.00 286.33 C 575.00 286.33, 575.77 302.12, 576.77 311.00 C 577.77 319.88, 578.54 334.56, 579.54 335.67 C 580.54 335.67, 581.31 319.39, 582.31 317.17 C 583.30 317.17, 584.08 318.89, 585.08 323.33 C 586.07 327.77, 586.85 338.50, 587.85 341.83 C 588.84 341.83, 589.62 341.83, 590.62 341.83 C 591.61 340.72, 592.39 335.67, 593.38 335.67 C 594.38 336.78, 595.16 348.00, 596.15 348.00 C 597.15 348.00, 597.93 347.88, 598.92 335.67 C 599.92 323.46, 600.70 283.49, 601.69 280.16 C 602.69 280.16, 603.46 306.06, 604.46 317.17 C 605.46 328.27, 606.23 338.50, 607.23 341.83 C 608.23 341.83, 609.00 335.67, 610.00 335.67 C 611.00 336.78, 611.77 345.78, 612.77 348.00 C 613.77 348.00, 614.54 348.00, 615.54 348.00 C 616.54 346.89, 617.31 341.83, 618.31 341.83 C 619.30 341.83, 620.08 346.89, 621.08 348.00 C 622.07 348.00, 622.85 348.00, 623.85 348.00 C 624.84 345.78, 625.62 335.67, 626.62 335.67 C 627.61 335.67, 628.39 348.00, 629.38 348.00 C 630.38 341.34, 631.16 304.21, 632.15 298.66 C 633.15 298.66, 633.93 317.17, 634.92 317.17 C 635.92 309.40, 636.70 255.50, 637.69 255.50 C 638.69 258.83, 639.46 319.02, 640.46 335.67 C 641.46 348.00, 642.23 348.00, 643.23 348.00 C 644.23 345.78, 645.00 329.99, 646.00 323.33 C 647.00 316.67, 647.77 311.00, 648.77 311.00 C 649.77 315.44, 650.54 341.34, 651.54 348.00 C 652.54 348.00, 653.31 348.00, 654.31 348.00 C 655.30 344.67, 656.08 332.83, 657.08 329.50 C 658.07 329.50, 658.85 329.50, 659.85 329.50 C 660.84 331.72, 661.62 339.61, 662.62 341.83 C 663.61 341.83, 664.39 341.83, 665.38 341.83 C 666.38 341.83, 667.16 341.83, 668.15 341.83 C 669.15 341.83, 669.93 341.83, 670.92 341.83 C 671.92 342.94, 672.70 348.00, 673.69 348.00 C 674.69 348.00, 675.46 344.05, 676.46 341.83 C 677.46 339.61, 678.23 335.67, 679.23 335.67 C 680.23 336.78, 681.00 348.00, 682.00 348.00 C 683.00 348.00, 683.77 336.78, 684.77 335.67 C 685.77 335.67, 686.54 340.72, 687.54 341.83 C 688.54 341.83, 689.31 341.83, 690.31 341.83 C 691.30 339.61, 692.08 329.50, 693.08 329.50 C 694.07 329.50, 694.85 340.72, 695.85 341.83 C 696.84 341.83, 697.62 335.67, 698.62 335.67 C 699.61 335.67, 700.39 341.83, 701.38 341.83 C 702.38 341.83, 703.16 335.67, 704.15 335.67 C 705.15 336.78, 705.93 345.78, 706.92 348.00 C 707.92 348.00, 708.70 348.00, 709.69 348.00 C 710.69 348.00, 711.46 348.00, 712.46 348.00 C 713.46 346.89, 714.23 341.83, 715.23 341.83 C 716.23 341.83, 717.00 348.00, 718.00 348.00 C 719.00 348.00, 719.77 346.27, 720.77 341.83 C 721.77 337.39, 722.54 323.33, 723.54 323.33 C 724.54 324.44, 725.31 343.56, 726.31 348.00 C 727.30 348.00, 728.08 348.00, 729.08 348.00 C 730.07 346.89, 730.85 342.94, 731.85 341.83 C 732.84 341.83, 733.62 341.83, 734.62 341.83 C 735.61 339.61, 736.39 329.50, 737.38 329.50 C 738.38 329.50, 739.16 338.50, 740.15 341.83 C 741.15 345.16, 741.93 346.89, 742.92 348.00 C 743.92 348.00, 744.70 348.00, 745.69 348.00 C 746.69 343.56, 747.46 324.44, 748.46 323.33 C 749.46 323.33, 750.23 337.39, 751.23 341.83 C 752.23 346.27, 753.00 348.00, 754.00 348.00 C 755.00 346.89, 755.77 339.00, 756.77 335.67 C 757.77 332.34, 758.54 329.50, 759.54 329.50 C 760.54 331.72, 761.31 345.78, 762.31 348.00 C 763.30 348.00, 764.08 342.94, 765.08 341.83 C 766.07 341.83, 766.85 341.83, 767.85 341.83 C 768.84 342.94, 769.62 348.00, 770.62 348.00 C 771.61 348.00, 772.39 341.83, 773.38 341.83 C 774.38 341.83, 775.16 348.00, 776.15 348.00 C 777.15 348.00, 777.93 341.83, 778.92 341.83 C 779.92 341.83, 780.70 346.89, 781.69 348.00 C 782.69 348.00, 783.46 348.00, 784.46 348.00 C 785.46 348.00, 786.23 348.00, 787.23 348.00 C 788.23 348.00, 789.00 348.00, 790.00 348.00 C 791.00 336.90, 791.77 287.44, 792.77 286.33 C 793.77 286.33, 794.54 331.84, 795.54 341.83 C 796.54 341.83, 797.31 341.83, 798.31 341.83 C 799.30 342.94, 800.08 348.00, 801.08 348.00 C 802.07 348.00, 802.85 341.83, 803.85 341.83 C 804.84 341.83, 805.62 348.00, 806.62 348.00 C 807.61 346.89, 808.39 339.00, 809.38 335.67 C 810.38 332.34, 811.16 329.50, 812.15 329.50 C 813.15 330.61, 813.93 338.50, 814.92 341.83 C 815.92 345.16, 816.70 348.00, 817.69 348.00 C 818.69 348.00, 819.46 342.94, 820.46 341.83 C 821.46 341.83, 822.23 341.83, 823.23 341.83 C 824.23 340.72, 825.00 335.67, 826.00 335.67 C 827.00 335.67, 827.77 340.72, 828.77 341.83 C 829.77 341.83, 830.54 341.83, 831.54 341.83 C 832.54 341.83, 833.31 341.83, 834.31 341.83 C 835.30 342.94, 836.08 346.89, 837.08 348.00 C 838.07 348.00, 838.85 348.00, 839.85 348.00 C 840.84 346.89, 841.62 342.94, 842.62 341.83 C 843.61 341.83, 844.39 341.83, 845.38 341.83 C 846.38 340.72, 847.16 336.78, 848.15 335.67 C 849.15 335.67, 849.93 335.67, 850.92 335.67 C 851.92 336.78, 852.70 339.61, 853.69 341.83 C 854.69 344.05, 855.46 348.00, 856.46 348.00 C 857.46 346.89, 858.23 335.67, 859.23 335.67 C 860.23 335.67, 861.00 348.00, 862.00 348.00 C 863.00 346.89, 863.77 330.61, 864.77 329.50 C 865.77 329.50, 866.54 340.72, 867.54 341.83 C 868.54 341.83, 869.31 335.67, 870.31 335.67 C 871.30 335.67, 872.08 340.72, 873.08 341.83 C 874.07 341.83, 874.85 341.83, 875.85 341.83 C 876.84 340.72, 877.62 336.78, 878.62 335.67 C 879.61 335.67, 880.39 335.67, 881.38 335.67 C 882.38 337.89, 883.16 348.00, 884.15 348.00 C 885.15 345.78, 885.93 324.44, 886.92 323.33 C 887.92 323.33, 888.70 339.61, 889.69 341.83 C 890.69 341.83, 891.46 336.78, 892.46 335.67 C 893.46 335.67, 894.23 335.67, 895.23 335.67 C 896.23 337.89, 897.00 345.78, 898.00 348.00 C 899.00 348.00, 899.77 348.00, 900.77 348.00 C 901.77 345.78, 902.54 337.89, 903.54 335.67 C 904.54 335.67, 905.31 335.67, 906.31 335.67 C 907.30 334.56, 908.08 330.61, 909.08 329.50 C 910.07 329.50, 910.85 329.50, 911.85 329.50 C 912.84 326.17, 913.62 329.50, 914.62 311.00 C 915.61 286.58, 916.39 193.83, 917.38 193.83 C 918.38 196.05, 919.16 297.80, 920.15 323.33 C 921.15 335.67, 921.93 332.34, 922.92 335.67 C 923.92 339.00, 924.70 341.83, 925.69 341.83 C 926.69 326.29, 927.46 269.31, 928.46 249.33 C 929.46 230.83, 930.23 230.83, 931.23 230.83 C 932.23 239.71, 933.00 284.23, 934.00 298.66 C 935.00 311.00, 935.77 307.67, 936.77 311.00 C 937.77 314.33, 938.54 317.17, 939.54 317.17 C 940.54 317.17, 941.31 317.17, 942.31 311.00 C 943.30 301.01, 944.08 261.66, 945.08 261.66 C 946.07 261.66, 946.85 311.00, 947.85 311.00 C 948.84 289.91, 949.62 144.49, 950.62 144.49 C 951.61 148.93, 952.39 299.03, 953.38 335.67 C 954.38 348.00, 955.16 346.89, 956.15 348.00 C 957.15 348.00, 957.93 344.05, 958.92 341.83 C 959.92 339.61, 960.70 339.00, 961.69 335.67 C 962.69 332.34, 963.46 327.77, 964.46 323.33 C 965.46 318.89, 966.23 311.00, 967.23 311.00 C 968.23 312.11, 969.00 322.84, 970.00 329.50 C 971.00 336.16, 971.77 344.67, 972.77 348.00 C 973.77 348.00, 974.54 348.00, 975.54 348.00 C 976.54 348.00, 977.31 348.00, 978.31 348.00 C 979.30 348.00, 980.08 348.00, 981.08 348.00 C 982.07 348.00, 982.85 348.00, 983.85 348.00 C 984.84 342.45, 985.62 322.72, 986.62 317.17 C 987.61 317.17, 988.39 317.17, 989.38 317.17 C 990.38 321.61, 991.16 338.50, 992.15 341.83 C 993.15 341.83, 993.93 335.67, 994.92 335.67 C 995.92 336.78, 996.70 348.00, 997.69 348.00 C 998.69 343.56, 999.46 311.00, 1000.46 311.00 C 1001.46 311.00, 1002.23 343.56, 1003.23 348.00 C 1004.23 348.00, 1005.00 335.67, 1006.00 335.67 C 1007.00 335.67, 1007.77 345.78, 1008.77 348.00 C 1009.77 348.00, 1010.54 348.00, 1011.54 348.00 C 1012.54 348.00, 1013.31 348.00, 1014.31 348.00 C 1015.30 342.45, 1016.08 322.72, 1017.08 317.17 C 1018.07 317.17, 1018.85 317.17, 1019.85 317.17 C 1020.84 321.61, 1021.62 341.83, 1022.62 341.83 C 1023.61 339.61, 1024.39 304.83, 1025.38 304.83 C 1026.38 305.94, 1027.16 340.23, 1028.15 348.00 C 1029.15 348.00, 1029.93 348.00, 1030.92 348.00 C 1031.92 348.00, 1032.70 348.00, 1033.69 348.00 C 1034.69 348.00, 1035.46 348.00, 1036.46 348.00 C 1037.46 348.00, 1038.23 348.00, 1039.23 348.00 C 1040.23 313.59, 1041.00 162.38, 1042.00 156.83 C 1043.00 156.83, 1043.77 282.75, 1044.77 317.17 C 1045.77 348.00, 1046.54 348.00, 1047.54 348.00 C 1048.54 336.90, 1049.31 255.50, 1050.31 255.50 C 1051.30 255.50, 1052.08 331.35, 1053.08 348.00 C 1054.07 348.00, 1054.85 348.00, 1055.85 348.00 C 1056.84 348.00, 1057.62 348.00, 1058.62 348.00 C 1059.61 348.00, 1060.39 348.00, 1061.38 348.00 C 1062.38 348.00, 1063.16 348.00, 1064.15 348.00 C 1065.15 348.00, 1065.93 348.00, 1066.92 348.00 C 1067.92 348.00, 1068.70 348.00, 1069.69 348.00 C 1070.69 348.00, 1071.46 348.00, 1072.46 348.00 C 1073.46 348.00, 1074.23 348.00, 1075.23 348.00 C 1076.23 348.00, 1077.50 348.00, 1078.00 348.00 L 1078.00 348.00 L 70.00 348.00 Z" fill="url(#daily-area)"/>
    <path d="M 70.00 348.00 C 70.66 347.26, 71.44 345.40, 72.77 344.92 C 74.10 344.92, 74.21 345.96, 75.54 345.96 C 76.87 344.85, 76.98 341.28, 78.31 340.29 C 79.64 340.29, 79.75 341.46, 81.08 341.83 C 82.41 341.83, 82.52 341.83, 83.85 341.83 C 85.18 342.04, 85.29 342.49, 86.62 342.70 C 87.94 342.70, 88.06 342.70, 89.38 342.70 C 90.71 342.49, 90.82 342.25, 92.15 341.83 C 93.48 341.42, 93.59 340.97, 94.92 340.97 C 96.25 341.61, 96.36 343.85, 97.69 344.48 C 99.02 344.48, 99.13 344.05, 100.46 343.62 C 101.79 343.19, 101.90 343.55, 103.23 342.70 C 104.56 341.84, 104.67 340.89, 106.00 340.04 C 107.33 339.20, 107.44 339.39, 108.77 339.18 C 110.10 339.18, 110.21 339.18, 111.54 339.18 C 112.87 339.18, 112.98 339.18, 114.31 339.18 C 115.64 338.97, 115.75 338.53, 117.08 338.32 C 118.41 338.32, 118.52 338.32, 119.85 338.32 C 121.18 338.32, 121.29 338.32, 122.62 338.32 C 123.94 338.73, 124.06 339.84, 125.38 340.04 C 126.71 340.04, 126.82 339.18, 128.15 339.18 C 129.48 339.18, 129.59 339.62, 130.92 340.04 C 132.25 340.47, 132.36 340.75, 133.69 340.97 C 135.02 340.97, 135.13 340.97, 136.46 340.97 C 137.79 340.75, 137.90 340.04, 139.23 340.04 C 140.56 340.04, 140.67 340.75, 142.00 340.97 C 143.33 340.97, 143.44 340.97, 144.77 340.97 C 146.10 341.18, 146.21 341.63, 147.54 341.83 C 148.87 341.83, 148.98 341.83, 150.31 341.83 C 151.64 341.40, 151.75 340.25, 153.08 340.04 C 154.41 340.04, 154.52 340.33, 155.85 340.97 C 157.18 341.61, 157.29 342.06, 158.62 342.70 C 159.94 343.33, 160.06 343.40, 161.38 343.62 C 162.71 343.62, 162.82 343.62, 164.15 343.62 C 165.48 343.62, 165.59 343.62, 166.92 343.62 C 168.25 343.62, 168.36 343.62, 169.69 343.62 C 171.02 344.04, 171.13 345.35, 172.46 345.35 C 173.79 345.35, 173.90 344.47, 175.23 343.62 C 176.56 342.78, 176.67 342.26, 178.00 341.83 C 179.33 341.83, 179.44 341.83, 180.77 341.83 C 182.10 341.83, 182.21 341.83, 183.54 341.83 C 184.87 341.83, 184.98 341.83, 186.31 341.83 C 187.64 341.83, 187.75 341.83, 189.08 341.83 C 190.41 341.83, 190.52 341.83, 191.85 341.83 C 193.18 342.04, 193.29 342.27, 194.62 342.70 C 195.94 343.13, 196.06 343.62, 197.38 343.62 C 198.71 342.57, 198.82 339.80, 200.15 338.32 C 201.48 337.45, 201.59 337.66, 202.92 337.45 C 204.25 337.45, 204.36 337.45, 205.69 337.45 C 207.02 337.45, 207.13 337.45, 208.46 337.45 C 209.79 337.23, 209.90 336.53, 211.23 336.53 C 212.56 336.53, 212.67 337.23, 214.00 337.45 C 215.33 337.45, 215.44 337.45, 216.77 337.45 C 218.10 338.30, 218.21 340.56, 219.54 340.97 C 220.87 340.97, 220.98 339.61, 222.31 339.18 C 223.64 339.18, 223.75 339.18, 225.08 339.18 C 226.41 339.18, 226.52 339.18, 227.85 339.18 C 229.18 339.18, 229.29 339.18, 230.62 339.18 C 231.94 338.97, 232.06 338.53, 233.38 338.32 C 234.71 338.32, 234.82 338.32, 236.15 338.32 C 237.48 338.11, 237.59 337.45, 238.92 337.45 C 240.25 338.09, 240.36 339.92, 241.69 340.97 C 243.02 341.83, 243.13 341.63, 244.46 341.83 C 245.79 341.83, 245.90 341.83, 247.23 341.83 C 248.56 341.83, 248.67 341.83, 250.00 341.83 C 251.33 341.63, 251.44 341.18, 252.77 340.97 C 254.10 340.97, 254.21 340.97, 255.54 340.97 C 256.87 341.18, 256.98 341.83, 258.31 341.83 C 259.64 341.83, 259.75 341.40, 261.08 340.97 C 262.41 340.54, 262.52 340.47, 263.85 340.04 C 265.18 339.62, 265.29 339.39, 266.62 339.18 C 267.94 339.18, 268.06 339.18, 269.38 339.18 C 270.71 339.61, 270.82 340.33, 272.15 340.97 C 273.48 341.61, 273.59 341.20, 274.92 341.83 C 276.25 342.47, 276.36 343.19, 277.69 343.62 C 279.02 343.62, 279.13 343.62, 280.46 343.62 C 281.79 343.62, 281.90 343.62, 283.23 343.62 C 284.56 342.99, 284.67 341.61, 286.00 340.97 C 287.33 340.97, 287.44 340.97, 288.77 340.97 C 290.10 340.97, 290.21 340.97, 291.54 340.97 C 292.87 340.33, 292.98 338.95, 294.31 338.32 C 295.64 338.32, 295.75 338.32, 297.08 338.32 C 298.41 338.32, 298.52 338.32, 299.85 338.32 C 301.18 338.32, 301.29 338.32, 302.62 338.32 C 303.94 339.37, 304.06 341.85, 305.38 342.70 C 306.71 342.70, 306.82 342.25, 308.15 341.83 C 309.48 341.42, 309.59 341.18, 310.92 340.97 C 312.25 340.97, 312.36 340.97, 313.69 340.97 C 315.02 340.97, 315.13 340.97, 316.46 340.97 C 317.79 340.97, 317.90 340.97, 319.23 340.97 C 320.56 340.75, 320.67 340.68, 322.00 340.04 C 323.33 339.41, 323.44 338.32, 324.77 338.32 C 326.10 338.32, 326.21 339.41, 327.54 340.04 C 328.87 340.68, 328.98 340.33, 330.31 340.97 C 331.64 341.61, 331.75 342.28, 333.08 342.70 C 334.41 342.70, 334.52 342.70, 335.85 342.70 C 337.18 342.28, 337.29 341.61, 338.62 340.97 C 339.94 340.33, 340.06 340.97, 341.38 340.04 C 342.71 338.56, 342.82 336.28, 344.15 334.80 C 345.48 333.88, 345.59 334.31, 346.92 333.88 C 348.25 333.45, 348.36 333.43, 349.69 333.01 C 351.02 332.60, 351.13 332.36, 352.46 332.15 C 353.79 332.15, 353.90 332.15, 355.23 332.15 C 356.56 332.15, 356.67 332.15, 358.00 332.15 C 359.33 332.15, 359.44 332.15, 360.77 332.15 C 362.10 333.84, 362.21 337.49, 363.54 339.18 C 364.87 339.18, 364.98 339.18, 366.31 339.18 C 367.64 339.18, 367.75 339.18, 369.08 339.18 C 370.41 339.61, 370.52 340.76, 371.85 340.97 C 373.18 340.97, 373.29 340.89, 374.62 340.04 C 375.94 339.20, 376.06 337.45, 377.38 337.45 C 378.71 337.45, 378.82 339.42, 380.15 340.04 C 381.48 340.04, 381.59 340.04, 382.92 340.04 C 384.25 337.72, 384.36 333.10, 385.69 330.36 C 387.02 328.64, 387.13 330.32, 388.46 328.64 C 389.79 326.95, 389.90 324.40, 391.23 323.33 C 392.56 323.33, 392.67 323.33, 394.00 324.20 C 395.33 325.68, 395.44 328.43, 396.77 329.50 C 398.10 329.50, 398.21 329.07, 399.54 328.64 C 400.87 328.21, 400.98 327.71, 402.31 327.71 C 403.64 330.03, 403.75 335.36, 405.08 338.32 C 406.41 340.04, 406.52 338.56, 407.85 340.04 C 409.18 341.52, 409.29 343.85, 410.62 344.48 C 411.94 344.48, 412.06 343.33, 413.38 342.70 C 414.71 342.06, 414.82 342.04, 416.15 341.83 C 417.48 341.83, 417.59 341.83, 418.92 341.83 C 420.25 342.04, 420.36 342.49, 421.69 342.70 C 423.02 342.70, 423.13 342.70, 424.46 342.70 C 425.79 342.70, 425.90 342.70, 427.23 342.70 C 428.56 342.70, 428.67 342.70, 430.00 342.70 C 431.33 342.49, 431.44 341.83, 432.77 341.83 C 434.10 341.83, 434.21 342.49, 435.54 342.70 C 436.87 342.70, 436.98 342.70, 438.31 342.70 C 439.64 342.70, 439.75 342.70, 441.08 342.70 C 442.41 342.70, 442.52 342.70, 443.85 342.70 C 445.18 342.70, 445.29 342.70, 446.62 342.70 C 447.94 342.70, 448.06 342.70, 449.38 342.70 C 450.71 343.33, 450.82 344.92, 452.15 345.35 C 453.48 345.35, 453.59 344.90, 454.92 344.48 C 456.25 344.07, 456.36 344.26, 457.69 343.62 C 459.02 342.99, 459.13 343.62, 460.46 341.83 C 461.79 339.92, 461.90 336.94, 463.23 335.67 C 464.56 335.67, 464.67 336.53, 466.00 336.53 C 467.33 335.89, 467.44 334.49, 468.77 333.01 C 470.10 331.53, 470.21 330.78, 471.54 330.36 C 472.87 330.36, 472.98 330.86, 474.31 331.29 C 475.64 331.72, 475.75 331.53, 477.08 332.15 C 478.41 332.77, 478.52 332.15, 479.85 333.88 C 481.18 335.77, 481.29 338.56, 482.62 340.04 C 483.94 340.04, 484.06 340.04, 485.38 340.04 C 486.71 340.90, 486.82 342.14, 488.15 343.62 C 489.48 345.10, 489.59 346.21, 490.92 346.21 C 492.25 346.21, 492.36 344.24, 493.69 343.62 C 495.02 343.62, 495.13 343.62, 496.46 343.62 C 497.79 343.62, 497.90 343.62, 499.23 343.62 C 500.56 343.19, 500.67 342.26, 502.00 341.83 C 503.33 341.83, 503.44 341.83, 504.77 341.83 C 506.10 341.63, 506.21 341.61, 507.54 340.97 C 508.87 340.33, 508.98 339.18, 510.31 339.18 C 511.64 339.18, 511.75 340.33, 513.08 340.97 C 514.41 341.61, 514.52 341.83, 515.85 341.83 C 517.18 341.61, 517.29 340.68, 518.62 340.04 C 519.94 339.41, 520.06 339.60, 521.38 339.18 C 522.71 338.77, 522.82 338.32, 524.15 338.32 C 525.48 338.32, 525.59 339.18, 526.92 339.18 C 528.25 339.18, 528.36 338.95, 529.69 338.32 C 531.02 337.68, 531.13 336.96, 532.46 336.53 C 533.79 336.53, 533.90 336.53, 535.23 336.53 C 536.56 336.75, 536.67 337.03, 538.00 337.45 C 539.33 337.88, 539.44 338.32, 540.77 338.32 C 542.10 338.10, 542.21 337.60, 543.54 336.53 C 544.87 335.46, 544.98 335.14, 546.31 333.88 C 547.64 332.62, 547.75 332.13, 549.08 331.29 C 550.41 330.44, 550.52 330.58, 551.85 330.36 C 553.18 330.36, 553.29 330.36, 554.62 330.36 C 555.94 330.36, 556.06 330.36, 557.38 330.36 C 558.71 330.58, 558.82 331.29, 560.15 331.29 C 561.48 331.08, 561.59 330.98, 562.92 329.50 C 564.25 328.02, 564.36 325.33, 565.69 325.12 C 567.02 325.12, 567.13 327.58, 568.46 328.64 C 569.79 329.50, 569.90 329.50, 571.23 329.50 C 572.56 327.59, 572.67 323.85, 574.00 320.68 C 575.33 317.51, 575.44 317.57, 576.77 316.30 C 578.10 315.38, 578.21 315.60, 579.54 315.38 C 580.87 315.38, 580.98 315.38, 582.31 315.38 C 583.64 316.44, 583.75 318.54, 585.08 319.82 C 586.41 320.68, 586.52 320.04, 587.85 320.68 C 589.18 321.32, 589.29 320.68, 590.62 322.47 C 591.94 324.59, 592.06 326.54, 593.38 329.50 C 594.71 332.46, 594.82 333.53, 596.15 334.80 C 597.48 334.80, 597.59 334.80, 598.92 334.80 C 600.25 333.53, 600.36 330.98, 601.69 329.50 C 603.02 328.64, 603.13 328.84, 604.46 328.64 C 605.79 328.64, 605.90 328.64, 607.23 328.64 C 608.56 328.41, 608.67 327.71, 610.00 327.71 C 611.33 327.92, 611.44 329.07, 612.77 329.50 C 614.10 329.50, 614.21 329.50, 615.54 329.50 C 616.87 329.71, 616.98 329.50, 618.31 330.36 C 619.64 332.89, 619.75 336.66, 621.08 340.04 C 622.41 343.43, 622.52 343.63, 623.85 344.48 C 625.18 344.48, 625.29 343.62, 626.62 343.62 C 627.94 343.83, 628.06 345.35, 629.38 345.35 C 630.71 344.08, 630.82 341.07, 632.15 338.32 C 633.48 335.56, 633.59 337.90, 634.92 333.88 C 636.25 329.85, 636.36 324.92, 637.69 321.54 C 639.02 319.82, 639.13 320.23, 640.46 319.82 C 641.79 319.82, 641.90 319.82, 643.23 319.82 C 644.56 319.39, 644.67 319.72, 646.00 318.03 C 647.33 316.34, 647.44 312.79, 648.77 312.79 C 650.10 313.22, 650.21 317.08, 651.54 319.82 C 652.87 322.56, 652.98 320.60, 654.31 324.20 C 655.64 327.79, 655.75 332.48, 657.08 334.80 C 658.41 334.80, 658.52 334.31, 659.85 333.88 C 661.18 333.45, 661.29 333.01, 662.62 333.01 C 663.94 333.44, 664.06 333.98, 665.38 335.67 C 666.71 337.35, 666.82 339.20, 668.15 340.04 C 669.48 340.04, 669.59 339.39, 670.92 339.18 C 672.25 339.18, 672.36 339.18, 673.69 339.18 C 675.02 339.61, 675.13 340.33, 676.46 340.97 C 677.79 341.61, 677.90 341.42, 679.23 341.83 C 680.56 342.25, 680.67 342.70, 682.00 342.70 C 683.33 342.70, 683.44 342.04, 684.77 341.83 C 686.10 341.83, 686.21 341.83, 687.54 341.83 C 688.87 341.83, 688.98 341.83, 690.31 341.83 C 691.64 341.20, 691.75 339.82, 693.08 339.18 C 694.41 339.18, 694.52 339.18, 695.85 339.18 C 697.18 339.18, 697.29 339.18, 698.62 339.18 C 699.94 338.97, 700.06 338.53, 701.38 338.32 C 702.71 338.32, 702.82 338.32, 704.15 338.32 C 705.48 338.53, 705.59 338.77, 706.92 339.18 C 708.25 339.60, 708.36 339.20, 709.69 340.04 C 711.02 340.89, 711.13 342.06, 712.46 342.70 C 713.79 342.70, 713.90 342.70, 715.23 342.70 C 716.56 343.13, 716.67 344.06, 718.00 344.48 C 719.33 344.48, 719.44 344.48, 720.77 344.48 C 722.10 344.06, 722.21 343.13, 723.54 342.70 C 724.87 342.70, 724.98 342.70, 726.31 342.70 C 727.64 342.70, 727.75 342.70, 729.08 342.70 C 730.41 342.49, 730.52 342.04, 731.85 341.83 C 733.18 341.83, 733.29 341.83, 734.62 341.83 C 735.94 341.20, 736.06 339.82, 737.38 339.18 C 738.71 339.18, 738.82 339.18, 740.15 339.18 C 741.48 340.02, 741.59 341.85, 742.92 342.70 C 744.25 342.70, 744.36 342.70, 745.69 342.70 C 747.02 341.85, 747.13 340.02, 748.46 339.18 C 749.79 339.18, 749.90 339.18, 751.23 339.18 C 752.56 339.39, 752.67 339.62, 754.00 340.04 C 755.33 340.47, 755.44 340.97, 756.77 340.97 C 758.10 340.76, 758.21 339.61, 759.54 339.18 C 760.87 339.18, 760.98 339.18, 762.31 339.18 C 763.64 338.97, 763.75 338.32, 765.08 338.32 C 766.41 338.75, 766.52 340.13, 767.85 340.97 C 769.18 341.81, 769.29 341.83, 770.62 341.83 C 771.94 341.83, 772.06 340.97, 773.38 340.97 C 774.71 341.18, 774.82 341.85, 776.15 342.70 C 777.48 343.54, 777.59 344.06, 778.92 344.48 C 780.25 344.48, 780.36 344.48, 781.69 344.48 C 783.02 344.69, 783.13 344.93, 784.46 345.35 C 785.79 345.76, 785.90 346.00, 787.23 346.21 C 788.56 346.21, 788.67 346.21, 790.00 346.21 C 791.33 344.32, 791.44 340.42, 792.77 338.32 C 794.10 337.45, 794.21 337.66, 795.54 337.45 C 796.87 337.45, 796.98 337.45, 798.31 337.45 C 799.64 337.45, 799.75 337.45, 801.08 337.45 C 802.41 337.23, 802.52 336.75, 803.85 336.53 C 805.18 336.53, 805.29 336.53, 806.62 336.53 C 807.94 336.12, 808.06 334.80, 809.38 334.80 C 810.71 335.87, 810.82 339.49, 812.15 340.97 C 813.48 340.97, 813.59 340.97, 814.92 340.97 C 816.25 341.18, 816.36 341.83, 817.69 341.83 C 819.02 341.83, 819.13 341.18, 820.46 340.97 C 821.79 340.97, 821.90 340.97, 823.23 340.97 C 824.56 340.54, 824.67 339.40, 826.00 339.18 C 827.33 339.18, 827.44 339.41, 828.77 340.04 C 830.10 340.68, 830.21 341.40, 831.54 341.83 C 832.87 341.83, 832.98 341.83, 834.31 341.83 C 835.64 341.83, 835.75 341.83, 837.08 341.83 C 838.41 342.04, 838.52 342.49, 839.85 342.70 C 841.18 342.70, 841.29 342.70, 842.62 342.70 C 843.94 342.92, 844.06 343.62, 845.38 343.62 C 846.71 343.62, 846.82 343.13, 848.15 342.70 C 849.48 342.27, 849.59 342.04, 850.92 341.83 C 852.25 341.83, 852.36 341.83, 853.69 341.83 C 855.02 341.83, 855.13 341.83, 856.46 341.83 C 857.79 341.40, 857.90 340.25, 859.23 340.04 C 860.56 340.04, 860.67 340.97, 862.00 340.97 C 863.33 340.76, 863.44 339.40, 864.77 339.18 C 866.10 339.18, 866.21 339.84, 867.54 340.04 C 868.87 340.04, 868.98 340.04, 870.31 340.04 C 871.64 340.04, 871.75 340.04, 873.08 340.04 C 874.41 339.84, 874.52 339.39, 875.85 339.18 C 877.18 339.18, 877.29 339.18, 878.62 339.18 C 879.94 338.77, 880.06 337.45, 881.38 337.45 C 882.71 337.66, 882.82 340.04, 884.15 340.04 C 885.48 340.04, 885.59 337.87, 886.92 337.45 C 888.25 337.45, 888.36 338.32, 889.69 338.32 C 891.02 338.32, 891.13 337.88, 892.46 337.45 C 893.79 337.03, 893.90 336.53, 895.23 336.53 C 896.56 336.74, 896.67 337.47, 898.00 338.32 C 899.33 339.16, 899.44 340.04, 900.77 340.04 C 902.10 340.04, 902.21 338.32, 903.54 338.32 C 904.87 338.32, 904.98 340.04, 906.31 340.04 C 907.64 340.04, 907.75 338.94, 909.08 338.32 C 910.41 337.70, 910.52 338.32, 911.85 337.45 C 913.18 336.39, 913.29 337.45, 914.62 333.88 C 915.94 327.74, 916.06 317.99, 917.38 311.86 C 918.71 308.35, 918.82 309.19, 920.15 308.35 C 921.48 308.35, 921.59 308.35, 922.92 308.35 C 924.25 308.55, 924.36 309.21, 925.69 309.21 C 927.02 306.68, 927.13 303.93, 928.46 297.80 C 929.79 291.67, 929.90 287.48, 931.23 283.68 C 932.56 281.95, 932.67 281.95, 934.00 281.95 C 935.33 285.55, 935.44 294.86, 936.77 298.66 C 938.10 298.66, 938.21 298.66, 939.54 297.80 C 940.87 296.75, 940.98 297.80, 942.31 294.29 C 943.64 290.69, 943.75 283.45, 945.08 282.82 C 946.41 282.82, 946.52 291.63, 947.85 291.63 C 949.18 290.79, 949.29 281.00, 950.62 279.30 C 951.94 279.30, 952.06 282.01, 953.38 284.54 C 954.71 287.07, 954.82 287.73, 956.15 289.85 C 957.48 291.96, 957.59 291.67, 958.92 293.36 C 960.25 295.05, 960.36 293.92, 961.69 296.88 C 963.02 299.84, 963.13 303.58, 964.46 305.69 C 965.79 305.69, 965.90 305.69, 967.23 305.69 C 968.56 312.04, 968.67 325.39, 970.00 332.15 C 971.33 333.88, 971.44 333.46, 972.77 333.88 C 974.10 333.88, 974.21 333.88, 975.54 333.88 C 976.87 334.10, 976.98 334.17, 978.31 334.80 C 979.64 335.44, 979.75 335.27, 981.08 336.53 C 982.41 337.79, 982.52 338.98, 983.85 340.04 C 985.18 340.97, 985.29 340.97, 986.62 340.97 C 987.94 340.76, 988.06 339.82, 989.38 339.18 C 990.71 338.54, 990.82 338.95, 992.15 338.32 C 993.48 337.68, 993.59 336.96, 994.92 336.53 C 996.25 336.53, 996.36 336.53, 997.69 336.53 C 999.02 335.27, 999.13 332.55, 1000.46 331.29 C 1001.79 331.29, 1001.90 331.29, 1003.23 331.29 C 1004.56 331.91, 1004.67 332.19, 1006.00 333.88 C 1007.33 335.56, 1007.44 337.05, 1008.77 338.32 C 1010.10 339.18, 1010.21 338.54, 1011.54 339.18 C 1012.87 339.82, 1012.98 340.97, 1014.31 340.97 C 1015.64 340.33, 1015.75 337.37, 1017.08 336.53 C 1018.41 336.53, 1018.52 337.45, 1019.85 337.45 C 1021.18 337.45, 1021.29 337.45, 1022.62 336.53 C 1023.94 335.26, 1024.06 333.20, 1025.38 332.15 C 1026.71 332.15, 1026.82 332.15, 1028.15 332.15 C 1029.48 332.15, 1029.59 332.15, 1030.92 332.15 C 1032.25 332.15, 1032.36 332.15, 1033.69 332.15 C 1035.02 333.20, 1035.13 334.41, 1036.46 336.53 C 1037.79 338.65, 1037.90 340.97, 1039.23 340.97 C 1040.56 335.69, 1040.67 320.43, 1042.00 314.51 C 1043.33 314.51, 1043.44 315.87, 1044.77 316.30 C 1046.10 316.30, 1046.21 316.30, 1047.54 316.30 C 1048.87 313.12, 1048.98 306.23, 1050.31 303.04 C 1051.64 303.04, 1051.75 303.04, 1053.08 303.04 C 1054.41 303.04, 1054.52 303.04, 1055.85 303.04 C 1057.18 303.04, 1057.29 303.04, 1058.62 303.04 C 1059.94 309.60, 1060.06 322.74, 1061.38 330.36 C 1062.71 334.80, 1062.82 333.74, 1064.15 334.80 C 1065.48 334.80, 1065.59 334.80, 1066.92 334.80 C 1068.25 337.97, 1068.36 344.83, 1069.69 348.00 C 1071.02 348.00, 1071.13 348.00, 1072.46 348.00 C 1073.79 348.00, 1073.90 348.00, 1075.23 348.00 C 1076.56 348.00, 1077.34 348.00, 1078.00 348.00" fill="none" stroke="#58a6ff" stroke-width="1.75" stroke-dasharray="5 7" stroke-linejoin="round" stroke-linecap="round" opacity="0.66" vector-effect="non-scaling-stroke"/>
    <path d="M 70.00 348.00 C 70.50 346.89, 71.77 341.83, 72.77 341.83 C 73.77 341.83, 74.54 348.00, 75.54 348.00 C 76.54 344.67, 77.31 323.33, 78.31 323.33 C 79.30 323.33, 80.08 344.67, 81.08 348.00 C 82.07 348.00, 82.85 341.83, 83.85 341.83 C 84.84 341.83, 85.62 346.89, 86.62 348.00 C 87.61 348.00, 88.39 348.00, 89.38 348.00 C 90.38 345.78, 91.16 336.78, 92.15 335.67 C 93.15 335.67, 93.93 339.61, 94.92 341.83 C 95.92 344.05, 96.70 348.00, 97.69 348.00 C 98.69 348.00, 99.46 344.05, 100.46 341.83 C 101.46 339.61, 102.23 337.89, 103.23 335.67 C 104.23 333.45, 105.00 329.50, 106.00 329.50 C 107.00 330.61, 107.77 340.72, 108.77 341.83 C 109.77 341.83, 110.54 335.67, 111.54 335.67 C 112.54 335.67, 113.31 340.72, 114.31 341.83 C 115.30 341.83, 116.08 341.83, 117.08 341.83 C 118.07 341.83, 118.85 341.83, 119.85 341.83 C 120.84 340.72, 121.62 335.67, 122.62 335.67 C 123.61 335.67, 124.39 341.83, 125.38 341.83 C 126.38 341.83, 127.16 335.67, 128.15 335.67 C 129.15 335.67, 129.93 339.61, 130.92 341.83 C 131.92 344.05, 132.70 348.00, 133.69 348.00 C 134.69 348.00, 135.46 344.05, 136.46 341.83 C 137.46 339.61, 138.23 335.67, 139.23 335.67 C 140.23 335.67, 141.00 340.72, 142.00 341.83 C 143.00 341.83, 143.77 341.83, 144.77 341.83 C 145.77 341.83, 146.54 341.83, 147.54 341.83 C 148.54 341.83, 149.31 341.83, 150.31 341.83 C 151.30 340.72, 152.08 335.67, 153.08 335.67 C 154.07 336.78, 154.85 345.78, 155.85 348.00 C 156.84 348.00, 157.62 348.00, 158.62 348.00 C 159.61 348.00, 160.39 348.00, 161.38 348.00 C 162.38 346.89, 163.16 342.94, 164.15 341.83 C 165.15 341.83, 165.93 341.83, 166.92 341.83 C 167.92 341.83, 168.70 341.83, 169.69 341.83 C 170.69 342.94, 171.46 348.00, 172.46 348.00 C 173.46 346.89, 174.23 337.89, 175.23 335.67 C 176.23 335.67, 177.00 335.67, 178.00 335.67 C 179.00 337.89, 179.77 346.89, 180.77 348.00 C 181.77 348.00, 182.54 342.94, 183.54 341.83 C 184.54 341.83, 185.31 341.83, 186.31 341.83 C 187.30 341.83, 188.08 341.83, 189.08 341.83 C 190.07 342.94, 190.85 348.00, 191.85 348.00 C 192.84 348.00, 193.62 342.94, 194.62 341.83 C 195.61 341.83, 196.39 341.83, 197.38 341.83 C 198.38 336.28, 199.16 312.11, 200.15 311.00 C 201.15 311.00, 201.93 330.12, 202.92 335.67 C 203.92 341.22, 204.70 340.72, 205.69 341.83 C 206.69 341.83, 207.46 341.83, 208.46 341.83 C 209.46 341.83, 210.23 341.83, 211.23 341.83 C 212.23 342.94, 213.00 348.00, 214.00 348.00 C 215.00 348.00, 215.77 344.05, 216.77 341.83 C 217.77 339.61, 218.54 339.00, 219.54 335.67 C 220.54 332.34, 221.31 323.33, 222.31 323.33 C 223.30 324.44, 224.08 338.50, 225.08 341.83 C 226.07 341.83, 226.85 341.83, 227.85 341.83 C 228.84 341.83, 229.62 341.83, 230.62 341.83 C 231.61 341.83, 232.39 341.83, 233.38 341.83 C 234.38 341.83, 235.16 341.83, 236.15 341.83 C 237.15 339.61, 237.93 329.50, 238.92 329.50 C 239.92 330.61, 240.70 344.67, 241.69 348.00 C 242.69 348.00, 243.46 348.00, 244.46 348.00 C 245.46 346.89, 246.23 342.94, 247.23 341.83 C 248.23 341.83, 249.00 341.83, 250.00 341.83 C 251.00 340.72, 251.77 335.67, 252.77 335.67 C 253.77 335.67, 254.54 341.83, 255.54 341.83 C 256.54 341.83, 257.31 335.67, 258.31 335.67 C 259.30 335.67, 260.08 340.72, 261.08 341.83 C 262.07 341.83, 262.85 341.83, 263.85 341.83 C 264.84 340.72, 265.62 335.67, 266.62 335.67 C 267.61 335.67, 268.39 339.61, 269.38 341.83 C 270.38 344.05, 271.16 346.89, 272.15 348.00 C 273.15 348.00, 273.93 348.00, 274.92 348.00 C 275.92 348.00, 276.70 348.00, 277.69 348.00 C 278.69 346.89, 279.46 342.94, 280.46 341.83 C 281.46 341.83, 282.23 341.83, 283.23 341.83 C 284.23 337.39, 285.00 317.17, 286.00 317.17 C 287.00 317.17, 287.77 336.28, 288.77 341.83 C 289.77 347.38, 290.54 348.00, 291.54 348.00 C 292.54 345.78, 293.31 329.50, 294.31 329.50 C 295.30 329.50, 296.08 345.78, 297.08 348.00 C 298.07 348.00, 298.85 342.94, 299.85 341.83 C 300.84 341.83, 301.62 341.83, 302.62 341.83 C 303.61 342.94, 304.39 348.00, 305.38 348.00 C 306.38 346.89, 307.16 336.78, 308.15 335.67 C 309.15 335.67, 309.93 341.83, 310.92 341.83 C 311.92 340.72, 312.70 329.50, 313.69 329.50 C 314.69 330.61, 315.46 345.78, 316.46 348.00 C 317.46 348.00, 318.23 344.05, 319.23 341.83 C 320.23 339.61, 321.00 336.78, 322.00 335.67 C 323.00 335.67, 323.77 335.67, 324.77 335.67 C 325.77 337.89, 326.54 345.78, 327.54 348.00 C 328.54 348.00, 329.31 348.00, 330.31 348.00 C 331.30 346.89, 332.08 341.83, 333.08 341.83 C 334.07 341.83, 334.85 348.00, 335.85 348.00 C 336.84 345.78, 337.62 332.83, 338.62 329.50 C 339.61 329.50, 340.39 329.50, 341.38 329.50 C 342.38 323.95, 343.16 298.66, 344.15 298.66 C 345.15 300.88, 345.93 334.06, 346.92 341.83 C 347.92 341.83, 348.70 341.83, 349.69 341.83 C 350.69 340.72, 351.46 335.67, 352.46 335.67 C 353.46 336.78, 354.23 348.00, 355.23 348.00 C 356.23 346.89, 357.00 332.83, 358.00 329.50 C 359.00 329.50, 359.77 329.50, 360.77 329.50 C 361.77 332.83, 362.54 345.78, 363.54 348.00 C 364.54 348.00, 365.31 342.94, 366.31 341.83 C 367.30 341.83, 368.08 341.83, 369.08 341.83 C 370.07 342.94, 370.85 348.00, 371.85 348.00 C 372.84 348.00, 373.62 348.00, 374.62 341.83 C 375.61 335.17, 376.39 311.00, 377.38 311.00 C 378.38 312.11, 379.16 341.34, 380.15 348.00 C 381.15 348.00, 381.93 348.00, 382.92 348.00 C 383.92 334.68, 384.70 277.33, 385.69 274.00 C 386.69 274.00, 387.46 322.84, 388.46 329.50 C 389.46 329.50, 390.23 311.00, 391.23 311.00 C 392.23 314.33, 393.00 341.34, 394.00 348.00 C 395.00 348.00, 395.77 348.00, 396.77 348.00 C 397.77 346.89, 398.54 342.94, 399.54 341.83 C 400.54 341.83, 401.31 341.83, 402.31 341.83 C 403.30 342.94, 404.08 348.00, 405.08 348.00 C 406.07 348.00, 406.85 342.94, 407.85 341.83 C 408.84 341.83, 409.62 341.83, 410.62 341.83 C 411.61 340.72, 412.39 335.67, 413.38 335.67 C 414.38 335.67, 415.16 340.72, 416.15 341.83 C 417.15 341.83, 417.93 341.83, 418.92 341.83 C 419.92 342.94, 420.70 346.89, 421.69 348.00 C 422.69 348.00, 423.46 348.00, 424.46 348.00 C 425.46 346.89, 426.23 342.94, 427.23 341.83 C 428.23 341.83, 429.00 341.83, 430.00 341.83 C 431.00 339.61, 431.77 329.50, 432.77 329.50 C 433.77 330.61, 434.54 345.78, 435.54 348.00 C 436.54 348.00, 437.31 341.83, 438.31 341.83 C 439.30 341.83, 440.08 346.89, 441.08 348.00 C 442.07 348.00, 442.85 348.00, 443.85 348.00 C 444.84 346.89, 445.62 342.94, 446.62 341.83 C 447.61 341.83, 448.39 341.83, 449.38 341.83 C 450.38 342.94, 451.16 348.00, 452.15 348.00 C 453.15 348.00, 453.93 344.05, 454.92 341.83 C 455.92 339.61, 456.70 336.78, 457.69 335.67 C 458.69 335.67, 459.46 335.67, 460.46 335.67 C 461.46 330.12, 462.23 304.83, 463.23 304.83 C 464.23 307.05, 465.00 345.78, 466.00 348.00 C 467.00 348.00, 467.77 320.50, 468.77 317.17 C 469.77 317.17, 470.54 323.95, 471.54 329.50 C 472.54 335.05, 473.31 345.78, 474.31 348.00 C 475.30 348.00, 476.08 341.83, 477.08 341.83 C 478.07 341.83, 478.85 346.89, 479.85 348.00 C 480.84 348.00, 481.62 348.00, 482.62 348.00 C 483.61 348.00, 484.39 348.00, 485.38 348.00 C 486.38 346.89, 487.16 341.83, 488.15 341.83 C 489.15 341.83, 489.93 348.00, 490.92 348.00 C 491.92 345.78, 492.70 330.61, 493.69 329.50 C 494.69 329.50, 495.46 338.50, 496.46 341.83 C 497.46 345.16, 498.23 348.00, 499.23 348.00 C 500.23 346.89, 501.00 335.67, 502.00 335.67 C 503.00 335.67, 503.77 348.00, 504.77 348.00 C 505.77 348.00, 506.54 337.89, 507.54 335.67 C 508.54 335.67, 509.31 335.67, 510.31 335.67 C 511.30 336.78, 512.08 339.61, 513.08 341.83 C 514.07 344.05, 514.85 348.00, 515.85 348.00 C 516.84 346.89, 517.62 339.00, 518.62 335.67 C 519.61 332.34, 520.39 329.50, 521.38 329.50 C 522.38 330.61, 523.16 339.61, 524.15 341.83 C 525.15 341.83, 525.93 341.83, 526.92 341.83 C 527.92 339.61, 528.70 331.72, 529.69 329.50 C 530.69 329.50, 531.46 329.50, 532.46 329.50 C 533.46 332.83, 534.23 345.78, 535.23 348.00 C 536.23 348.00, 537.00 344.05, 538.00 341.83 C 539.00 339.61, 539.77 337.89, 540.77 335.67 C 541.77 333.45, 542.54 331.72, 543.54 329.50 C 544.54 327.28, 545.31 326.66, 546.31 323.33 C 547.30 320.00, 548.08 311.00, 549.08 311.00 C 550.07 311.00, 550.85 316.67, 551.85 323.33 C 552.84 329.99, 553.62 344.67, 554.62 348.00 C 555.61 348.00, 556.39 342.94, 557.38 341.83 C 558.38 341.83, 559.16 341.83, 560.15 341.83 C 561.15 337.39, 561.93 326.05, 562.92 317.17 C 563.92 308.28, 564.70 292.50, 565.69 292.50 C 566.69 295.83, 567.46 329.01, 568.46 335.67 C 569.46 335.67, 570.23 335.67, 571.23 329.50 C 572.23 320.62, 573.00 289.66, 574.00 286.33 C 575.00 286.33, 575.77 302.12, 576.77 311.00 C 577.77 319.88, 578.54 334.56, 579.54 335.67 C 580.54 335.67, 581.31 319.39, 582.31 317.17 C 583.30 317.17, 584.08 318.89, 585.08 323.33 C 586.07 327.77, 586.85 338.50, 587.85 341.83 C 588.84 341.83, 589.62 341.83, 590.62 341.83 C 591.61 340.72, 592.39 335.67, 593.38 335.67 C 594.38 336.78, 595.16 348.00, 596.15 348.00 C 597.15 348.00, 597.93 347.88, 598.92 335.67 C 599.92 323.46, 600.70 283.49, 601.69 280.16 C 602.69 280.16, 603.46 306.06, 604.46 317.17 C 605.46 328.27, 606.23 338.50, 607.23 341.83 C 608.23 341.83, 609.00 335.67, 610.00 335.67 C 611.00 336.78, 611.77 345.78, 612.77 348.00 C 613.77 348.00, 614.54 348.00, 615.54 348.00 C 616.54 346.89, 617.31 341.83, 618.31 341.83 C 619.30 341.83, 620.08 346.89, 621.08 348.00 C 622.07 348.00, 622.85 348.00, 623.85 348.00 C 624.84 345.78, 625.62 335.67, 626.62 335.67 C 627.61 335.67, 628.39 348.00, 629.38 348.00 C 630.38 341.34, 631.16 304.21, 632.15 298.66 C 633.15 298.66, 633.93 317.17, 634.92 317.17 C 635.92 309.40, 636.70 255.50, 637.69 255.50 C 638.69 258.83, 639.46 319.02, 640.46 335.67 C 641.46 348.00, 642.23 348.00, 643.23 348.00 C 644.23 345.78, 645.00 329.99, 646.00 323.33 C 647.00 316.67, 647.77 311.00, 648.77 311.00 C 649.77 315.44, 650.54 341.34, 651.54 348.00 C 652.54 348.00, 653.31 348.00, 654.31 348.00 C 655.30 344.67, 656.08 332.83, 657.08 329.50 C 658.07 329.50, 658.85 329.50, 659.85 329.50 C 660.84 331.72, 661.62 339.61, 662.62 341.83 C 663.61 341.83, 664.39 341.83, 665.38 341.83 C 666.38 341.83, 667.16 341.83, 668.15 341.83 C 669.15 341.83, 669.93 341.83, 670.92 341.83 C 671.92 342.94, 672.70 348.00, 673.69 348.00 C 674.69 348.00, 675.46 344.05, 676.46 341.83 C 677.46 339.61, 678.23 335.67, 679.23 335.67 C 680.23 336.78, 681.00 348.00, 682.00 348.00 C 683.00 348.00, 683.77 336.78, 684.77 335.67 C 685.77 335.67, 686.54 340.72, 687.54 341.83 C 688.54 341.83, 689.31 341.83, 690.31 341.83 C 691.30 339.61, 692.08 329.50, 693.08 329.50 C 694.07 329.50, 694.85 340.72, 695.85 341.83 C 696.84 341.83, 697.62 335.67, 698.62 335.67 C 699.61 335.67, 700.39 341.83, 701.38 341.83 C 702.38 341.83, 703.16 335.67, 704.15 335.67 C 705.15 336.78, 705.93 345.78, 706.92 348.00 C 707.92 348.00, 708.70 348.00, 709.69 348.00 C 710.69 348.00, 711.46 348.00, 712.46 348.00 C 713.46 346.89, 714.23 341.83, 715.23 341.83 C 716.23 341.83, 717.00 348.00, 718.00 348.00 C 719.00 348.00, 719.77 346.27, 720.77 341.83 C 721.77 337.39, 722.54 323.33, 723.54 323.33 C 724.54 324.44, 725.31 343.56, 726.31 348.00 C 727.30 348.00, 728.08 348.00, 729.08 348.00 C 730.07 346.89, 730.85 342.94, 731.85 341.83 C 732.84 341.83, 733.62 341.83, 734.62 341.83 C 735.61 339.61, 736.39 329.50, 737.38 329.50 C 738.38 329.50, 739.16 338.50, 740.15 341.83 C 741.15 345.16, 741.93 346.89, 742.92 348.00 C 743.92 348.00, 744.70 348.00, 745.69 348.00 C 746.69 343.56, 747.46 324.44, 748.46 323.33 C 749.46 323.33, 750.23 337.39, 751.23 341.83 C 752.23 346.27, 753.00 348.00, 754.00 348.00 C 755.00 346.89, 755.77 339.00, 756.77 335.67 C 757.77 332.34, 758.54 329.50, 759.54 329.50 C 760.54 331.72, 761.31 345.78, 762.31 348.00 C 763.30 348.00, 764.08 342.94, 765.08 341.83 C 766.07 341.83, 766.85 341.83, 767.85 341.83 C 768.84 342.94, 769.62 348.00, 770.62 348.00 C 771.61 348.00, 772.39 341.83, 773.38 341.83 C 774.38 341.83, 775.16 348.00, 776.15 348.00 C 777.15 348.00, 777.93 341.83, 778.92 341.83 C 779.92 341.83, 780.70 346.89, 781.69 348.00 C 782.69 348.00, 783.46 348.00, 784.46 348.00 C 785.46 348.00, 786.23 348.00, 787.23 348.00 C 788.23 348.00, 789.00 348.00, 790.00 348.00 C 791.00 336.90, 791.77 287.44, 792.77 286.33 C 793.77 286.33, 794.54 331.84, 795.54 341.83 C 796.54 341.83, 797.31 341.83, 798.31 341.83 C 799.30 342.94, 800.08 348.00, 801.08 348.00 C 802.07 348.00, 802.85 341.83, 803.85 341.83 C 804.84 341.83, 805.62 348.00, 806.62 348.00 C 807.61 346.89, 808.39 339.00, 809.38 335.67 C 810.38 332.34, 811.16 329.50, 812.15 329.50 C 813.15 330.61, 813.93 338.50, 814.92 341.83 C 815.92 345.16, 816.70 348.00, 817.69 348.00 C 818.69 348.00, 819.46 342.94, 820.46 341.83 C 821.46 341.83, 822.23 341.83, 823.23 341.83 C 824.23 340.72, 825.00 335.67, 826.00 335.67 C 827.00 335.67, 827.77 340.72, 828.77 341.83 C 829.77 341.83, 830.54 341.83, 831.54 341.83 C 832.54 341.83, 833.31 341.83, 834.31 341.83 C 835.30 342.94, 836.08 346.89, 837.08 348.00 C 838.07 348.00, 838.85 348.00, 839.85 348.00 C 840.84 346.89, 841.62 342.94, 842.62 341.83 C 843.61 341.83, 844.39 341.83, 845.38 341.83 C 846.38 340.72, 847.16 336.78, 848.15 335.67 C 849.15 335.67, 849.93 335.67, 850.92 335.67 C 851.92 336.78, 852.70 339.61, 853.69 341.83 C 854.69 344.05, 855.46 348.00, 856.46 348.00 C 857.46 346.89, 858.23 335.67, 859.23 335.67 C 860.23 335.67, 861.00 348.00, 862.00 348.00 C 863.00 346.89, 863.77 330.61, 864.77 329.50 C 865.77 329.50, 866.54 340.72, 867.54 341.83 C 868.54 341.83, 869.31 335.67, 870.31 335.67 C 871.30 335.67, 872.08 340.72, 873.08 341.83 C 874.07 341.83, 874.85 341.83, 875.85 341.83 C 876.84 340.72, 877.62 336.78, 878.62 335.67 C 879.61 335.67, 880.39 335.67, 881.38 335.67 C 882.38 337.89, 883.16 348.00, 884.15 348.00 C 885.15 345.78, 885.93 324.44, 886.92 323.33 C 887.92 323.33, 888.70 339.61, 889.69 341.83 C 890.69 341.83, 891.46 336.78, 892.46 335.67 C 893.46 335.67, 894.23 335.67, 895.23 335.67 C 896.23 337.89, 897.00 345.78, 898.00 348.00 C 899.00 348.00, 899.77 348.00, 900.77 348.00 C 901.77 345.78, 902.54 337.89, 903.54 335.67 C 904.54 335.67, 905.31 335.67, 906.31 335.67 C 907.30 334.56, 908.08 330.61, 909.08 329.50 C 910.07 329.50, 910.85 329.50, 911.85 329.50 C 912.84 326.17, 913.62 329.50, 914.62 311.00 C 915.61 286.58, 916.39 193.83, 917.38 193.83 C 918.38 196.05, 919.16 297.80, 920.15 323.33 C 921.15 335.67, 921.93 332.34, 922.92 335.67 C 923.92 339.00, 924.70 341.83, 925.69 341.83 C 926.69 326.29, 927.46 269.31, 928.46 249.33 C 929.46 230.83, 930.23 230.83, 931.23 230.83 C 932.23 239.71, 933.00 284.23, 934.00 298.66 C 935.00 311.00, 935.77 307.67, 936.77 311.00 C 937.77 314.33, 938.54 317.17, 939.54 317.17 C 940.54 317.17, 941.31 317.17, 942.31 311.00 C 943.30 301.01, 944.08 261.66, 945.08 261.66 C 946.07 261.66, 946.85 311.00, 947.85 311.00 C 948.84 289.91, 949.62 144.49, 950.62 144.49 C 951.61 148.93, 952.39 299.03, 953.38 335.67 C 954.38 348.00, 955.16 346.89, 956.15 348.00 C 957.15 348.00, 957.93 344.05, 958.92 341.83 C 959.92 339.61, 960.70 339.00, 961.69 335.67 C 962.69 332.34, 963.46 327.77, 964.46 323.33 C 965.46 318.89, 966.23 311.00, 967.23 311.00 C 968.23 312.11, 969.00 322.84, 970.00 329.50 C 971.00 336.16, 971.77 344.67, 972.77 348.00 C 973.77 348.00, 974.54 348.00, 975.54 348.00 C 976.54 348.00, 977.31 348.00, 978.31 348.00 C 979.30 348.00, 980.08 348.00, 981.08 348.00 C 982.07 348.00, 982.85 348.00, 983.85 348.00 C 984.84 342.45, 985.62 322.72, 986.62 317.17 C 987.61 317.17, 988.39 317.17, 989.38 317.17 C 990.38 321.61, 991.16 338.50, 992.15 341.83 C 993.15 341.83, 993.93 335.67, 994.92 335.67 C 995.92 336.78, 996.70 348.00, 997.69 348.00 C 998.69 343.56, 999.46 311.00, 1000.46 311.00 C 1001.46 311.00, 1002.23 343.56, 1003.23 348.00 C 1004.23 348.00, 1005.00 335.67, 1006.00 335.67 C 1007.00 335.67, 1007.77 345.78, 1008.77 348.00 C 1009.77 348.00, 1010.54 348.00, 1011.54 348.00 C 1012.54 348.00, 1013.31 348.00, 1014.31 348.00 C 1015.30 342.45, 1016.08 322.72, 1017.08 317.17 C 1018.07 317.17, 1018.85 317.17, 1019.85 317.17 C 1020.84 321.61, 1021.62 341.83, 1022.62 341.83 C 1023.61 339.61, 1024.39 304.83, 1025.38 304.83 C 1026.38 305.94, 1027.16 340.23, 1028.15 348.00 C 1029.15 348.00, 1029.93 348.00, 1030.92 348.00 C 1031.92 348.00, 1032.70 348.00, 1033.69 348.00 C 1034.69 348.00, 1035.46 348.00, 1036.46 348.00 C 1037.46 348.00, 1038.23 348.00, 1039.23 348.00 C 1040.23 313.59, 1041.00 162.38, 1042.00 156.83 C 1043.00 156.83, 1043.77 282.75, 1044.77 317.17 C 1045.77 348.00, 1046.54 348.00, 1047.54 348.00 C 1048.54 336.90, 1049.31 255.50, 1050.31 255.50 C 1051.30 255.50, 1052.08 331.35, 1053.08 348.00 C 1054.07 348.00, 1054.85 348.00, 1055.85 348.00 C 1056.84 348.00, 1057.62 348.00, 1058.62 348.00 C 1059.61 348.00, 1060.39 348.00, 1061.38 348.00 C 1062.38 348.00, 1063.16 348.00, 1064.15 348.00 C 1065.15 348.00, 1065.93 348.00, 1066.92 348.00 C 1067.92 348.00, 1068.70 348.00, 1069.69 348.00 C 1070.69 348.00, 1071.46 348.00, 1072.46 348.00 C 1073.46 348.00, 1074.23 348.00, 1075.23 348.00 C 1076.23 348.00, 1077.50 348.00, 1078.00 348.00" fill="none" stroke="#39d353" stroke-width="2.8" stroke-linejoin="round" stroke-linecap="round" vector-effect="non-scaling-stroke"/>
    <circle cx="1078.00" cy="348.00" r="3.2" fill="#39d353" filter="url(#point-glow)"/>
    <text x="70.00" y="389" fill="#8b949e" font-size="12" text-anchor="start" opacity="0.86">Sep 27, 2025</text>
    <text x="238.92" y="389" fill="#8b949e" font-size="12" text-anchor="middle" opacity="0.86">Nov 27, 2025</text>
    <text x="405.08" y="389" fill="#8b949e" font-size="12" text-anchor="middle" opacity="0.86">Jan 26, 2026</text>
    <text x="574.00" y="389" fill="#8b949e" font-size="12" text-anchor="middle" opacity="0.86">Mar 28, 2026</text>
    <text x="742.92" y="389" fill="#8b949e" font-size="12" text-anchor="middle" opacity="0.86">May 28, 2026</text>
    <text x="909.08" y="389" fill="#8b949e" font-size="12" text-anchor="middle" opacity="0.86">Jul 27, 2026</text>
    <text x="1078.00" y="389" fill="#8b949e" font-size="12" text-anchor="end" opacity="0.86">Sep 26, 2026</text>
  </g>
</svg>
