<svg xmlns="http://www.w3.org/2000/svg" width="1120" height="410" viewBox="0 0 1120 410" role="img" aria-labelledby="chart-title chart-desc">
  <title id="chart-title">GitHub contribution activity</title>
  <desc id="chart-desc">747 contributions across 250 active days in the last 365 days.</desc>
  <defs>
    <linearGradient id="chart-bg" x1="0" y1="0" x2="0" y2="1">
      <stop offset="0" stop-color="#111821" stop-opacity="0.72"/>
      <stop offset="1" stop-color="#0d1117" stop-opacity="1"/>
    </linearGradient>
    <linearGradient id="daily-area" x1="0" y1="0" x2="0" y2="1">
      <stop offset="0" stop-color="#39d353" stop-opacity="0.23"/>
      <stop offset="0.58" stop-color="#39d353" stop-opacity="0.07"/>
      <stop offset="1" stop-color="#39d353" stop-opacity="0"/>
    </linearGradient>
    <filter id="point-glow" x="-300%" y="-300%" width="700%" height="700%">
      <feGaussianBlur stdDeviation="3.5" result="blur"/>
      <feMerge><feMergeNode in="blur"/><feMergeNode in="SourceGraphic"/></feMerge>
    </filter>
  </defs>
  <rect x="0.5" y="0.5" width="1119" height="409" rx="18" fill="url(#chart-bg)" stroke="none"/>
  <g font-family="-apple-system,BlinkMacSystemFont,'Segoe UI',sans-serif">
    <text x="70" y="34" fill="#f0f6fc" font-size="20" font-weight="700" letter-spacing="-0.25">GitHub contribution activity</text>
    <text x="70" y="58" fill="#8b949e" font-size="12">@newbie-del · Oct 04, 2025 → Oct 03, 2026</text>
    <text x="70" y="78" fill="#8b949e" font-size="12" opacity="0.94">365 days · 747 contributions · 250 active days · peak 33</text>
    <g transform="translate(896,30)" font-size="12" fill="#8b949e">
      <line x1="0" y1="0" x2="25" y2="0" stroke="#39d353" stroke-width="2.6" stroke-linecap="round"/>
      <text x="33" y="4">Daily</text>
      <line x1="92" y1="0" x2="117" y2="0" stroke="#58a6ff" stroke-width="1.7" stroke-dasharray="5 6" stroke-linecap="round" opacity="0.72"/>
      <text x="125" y="4">7d trend</text>
    </g>
    <line x1="70" y1="116.00" x2="1078" y2="116.00" stroke="#21262d" stroke-width="1" opacity="0.52"/>
    <text x="56" y="120.00" fill="#8b949e" font-size="12" text-anchor="end" opacity="0.82">38</text>
    <line x1="70" y1="193.33" x2="1078" y2="193.33" stroke="#21262d" stroke-width="1" opacity="0.52"/>
    <text x="56" y="197.33" fill="#8b949e" font-size="12" text-anchor="end" opacity="0.82">25</text>
    <line x1="70" y1="270.67" x2="1078" y2="270.67" stroke="#21262d" stroke-width="1" opacity="0.52"/>
    <text x="56" y="274.67" fill="#8b949e" font-size="12" text-anchor="end" opacity="0.82">13</text>
    <line x1="70" y1="348.00" x2="1078" y2="348.00" stroke="#21262d" stroke-width="1" opacity="0.9"/>
    <text x="56" y="352.00" fill="#8b949e" font-size="12" text-anchor="end" opacity="0.82">0</text>
    <path d="M 70.00 348.00 C 70.50 345.78, 71.77 336.78, 72.77 335.67 C 73.77 335.67, 74.54 339.61, 75.54 341.83 C 76.54 344.05, 77.31 348.00, 78.31 348.00 C 79.30 348.00, 80.08 344.05, 81.08 341.83 C 82.07 339.61, 82.85 337.89, 83.85 335.67 C 84.84 333.45, 85.62 329.50, 86.62 329.50 C 87.61 330.61, 88.39 340.72, 89.38 341.83 C 90.38 341.83, 91.16 335.67, 92.15 335.67 C 93.15 335.67, 93.93 340.72, 94.92 341.83 C 95.92 341.83, 96.70 341.83, 97.69 341.83 C 98.69 341.83, 99.46 341.83, 100.46 341.83 C 101.46 340.72, 102.23 335.67, 103.23 335.67 C 104.23 335.67, 105.00 341.83, 106.00 341.83 C 107.00 341.83, 107.77 335.67, 108.77 335.67 C 109.77 335.67, 110.54 339.61, 111.54 341.83 C 112.54 344.05, 113.31 348.00, 114.31 348.00 C 115.30 348.00, 116.08 344.05, 117.08 341.83 C 118.07 339.61, 118.85 335.67, 119.85 335.67 C 120.84 335.67, 121.62 340.72, 122.62 341.83 C 123.61 341.83, 124.39 341.83, 125.38 341.83 C 126.38 341.83, 127.16 341.83, 128.15 341.83 C 129.15 341.83, 129.93 341.83, 130.92 341.83 C 131.92 340.72, 132.70 335.67, 133.69 335.67 C 134.69 336.78, 135.46 345.78, 136.46 348.00 C 137.46 348.00, 138.23 348.00, 139.23 348.00 C 140.23 348.00, 141.00 348.00, 142.00 348.00 C 143.00 346.89, 143.77 342.94, 144.77 341.83 C 145.77 341.83, 146.54 341.83, 147.54 341.83 C 148.54 341.83, 149.31 341.83, 150.31 341.83 C 151.30 342.94, 152.08 348.00, 153.08 348.00 C 154.07 346.89, 154.85 337.89, 155.85 335.67 C 156.84 335.67, 157.62 335.67, 158.62 335.67 C 159.61 337.89, 160.39 346.89, 161.38 348.00 C 162.38 348.00, 163.16 342.94, 164.15 341.83 C 165.15 341.83, 165.93 341.83, 166.92 341.83 C 167.92 341.83, 168.70 341.83, 169.69 341.83 C 170.69 342.94, 171.46 348.00, 172.46 348.00 C 173.46 348.00, 174.23 342.94, 175.23 341.83 C 176.23 341.83, 177.00 341.83, 178.00 341.83 C 179.00 336.28, 179.77 312.11, 180.77 311.00 C 181.77 311.00, 182.54 330.12, 183.54 335.67 C 184.54 341.22, 185.31 340.72, 186.31 341.83 C 187.30 341.83, 188.08 341.83, 189.08 341.83 C 190.07 341.83, 190.85 341.83, 191.85 341.83 C 192.84 342.94, 193.62 348.00, 194.62 348.00 C 195.61 348.00, 196.39 344.05, 197.38 341.83 C 198.38 339.61, 199.16 339.00, 200.15 335.67 C 201.15 332.34, 201.93 323.33, 202.92 323.33 C 203.92 324.44, 204.70 338.50, 205.69 341.83 C 206.69 341.83, 207.46 341.83, 208.46 341.83 C 209.46 341.83, 210.23 341.83, 211.23 341.83 C 212.23 341.83, 213.00 341.83, 214.00 341.83 C 215.00 341.83, 215.77 341.83, 216.77 341.83 C 217.77 339.61, 218.54 329.50, 219.54 329.50 C 220.54 330.61, 221.31 344.67, 222.31 348.00 C 223.30 348.00, 224.08 348.00, 225.08 348.00 C 226.07 346.89, 226.85 342.94, 227.85 341.83 C 228.84 341.83, 229.62 341.83, 230.62 341.83 C 231.61 340.72, 232.39 335.67, 233.38 335.67 C 234.38 335.67, 235.16 341.83, 236.15 341.83 C 237.15 341.83, 237.93 335.67, 238.92 335.67 C 239.92 335.67, 240.70 340.72, 241.69 341.83 C 242.69 341.83, 243.46 341.83, 244.46 341.83 C 245.46 340.72, 246.23 335.67, 247.23 335.67 C 248.23 335.67, 249.00 339.61, 250.00 341.83 C 251.00 344.05, 251.77 346.89, 252.77 348.00 C 253.77 348.00, 254.54 348.00, 255.54 348.00 C 256.54 348.00, 257.31 348.00, 258.31 348.00 C 259.30 346.89, 260.08 342.94, 261.08 341.83 C 262.07 341.83, 262.85 341.83, 263.85 341.83 C 264.84 337.39, 265.62 317.17, 266.62 317.17 C 267.61 317.17, 268.39 336.28, 269.38 341.83 C 270.38 347.38, 271.16 348.00, 272.15 348.00 C 273.15 345.78, 273.93 329.50, 274.92 329.50 C 275.92 329.50, 276.70 345.78, 277.69 348.00 C 278.69 348.00, 279.46 342.94, 280.46 341.83 C 281.46 341.83, 282.23 341.83, 283.23 341.83 C 284.23 342.94, 285.00 348.00, 286.00 348.00 C 287.00 346.89, 287.77 336.78, 288.77 335.67 C 289.77 335.67, 290.54 341.83, 291.54 341.83 C 292.54 340.72, 293.31 329.50, 294.31 329.50 C 295.30 330.61, 296.08 345.78, 297.08 348.00 C 298.07 348.00, 298.85 344.05, 299.85 341.83 C 300.84 339.61, 301.62 336.78, 302.62 335.67 C 303.61 335.67, 304.39 335.67, 305.38 335.67 C 306.38 337.89, 307.16 345.78, 308.15 348.00 C 309.15 348.00, 309.93 348.00, 310.92 348.00 C 311.92 346.89, 312.70 341.83, 313.69 341.83 C 314.69 341.83, 315.46 348.00, 316.46 348.00 C 317.46 345.78, 318.23 332.83, 319.23 329.50 C 320.23 329.50, 321.00 329.50, 322.00 329.50 C 323.00 323.95, 323.77 298.66, 324.77 298.66 C 325.77 300.88, 326.54 334.06, 327.54 341.83 C 328.54 341.83, 329.31 341.83, 330.31 341.83 C 331.30 340.72, 332.08 335.67, 333.08 335.67 C 334.07 336.78, 334.85 348.00, 335.85 348.00 C 336.84 346.89, 337.62 332.83, 338.62 329.50 C 339.61 329.50, 340.39 329.50, 341.38 329.50 C 342.38 332.83, 343.16 345.78, 344.15 348.00 C 345.15 348.00, 345.93 342.94, 346.92 341.83 C 347.92 341.83, 348.70 341.83, 349.69 341.83 C 350.69 342.94, 351.46 348.00, 352.46 348.00 C 353.46 348.00, 354.23 348.00, 355.23 341.83 C 356.23 335.17, 357.00 311.00, 358.00 311.00 C 359.00 312.11, 359.77 341.34, 360.77 348.00 C 361.77 348.00, 362.54 348.00, 363.54 348.00 C 364.54 334.68, 365.31 277.33, 366.31 274.00 C 367.30 274.00, 368.08 322.84, 369.08 329.50 C 370.07 329.50, 370.85 311.00, 371.85 311.00 C 372.84 314.33, 373.62 341.34, 374.62 348.00 C 375.61 348.00, 376.39 348.00, 377.38 348.00 C 378.38 346.89, 379.16 342.94, 380.15 341.83 C 381.15 341.83, 381.93 341.83, 382.92 341.83 C 383.92 342.94, 384.70 348.00, 385.69 348.00 C 386.69 348.00, 387.46 342.94, 388.46 341.83 C 389.46 341.83, 390.23 341.83, 391.23 341.83 C 392.23 340.72, 393.00 335.67, 394.00 335.67 C 395.00 335.67, 395.77 340.72, 396.77 341.83 C 397.77 341.83, 398.54 341.83, 399.54 341.83 C 400.54 342.94, 401.31 346.89, 402.31 348.00 C 403.30 348.00, 404.08 348.00, 405.08 348.00 C 406.07 346.89, 406.85 342.94, 407.85 341.83 C 408.84 341.83, 409.62 341.83, 410.62 341.83 C 411.61 339.61, 412.39 329.50, 413.38 329.50 C 414.38 330.61, 415.16 345.78, 416.15 348.00 C 417.15 348.00, 417.93 341.83, 418.92 341.83 C 419.92 341.83, 420.70 346.89, 421.69 348.00 C 422.69 348.00, 423.46 348.00, 424.46 348.00 C 425.46 346.89, 426.23 342.94, 427.23 341.83 C 428.23 341.83, 429.00 341.83, 430.00 341.83 C 431.00 342.94, 431.77 348.00, 432.77 348.00 C 433.77 348.00, 434.54 344.05, 435.54 341.83 C 436.54 339.61, 437.31 336.78, 438.31 335.67 C 439.30 335.67, 440.08 335.67, 441.08 335.67 C 442.07 330.12, 442.85 304.83, 443.85 304.83 C 444.84 307.05, 445.62 345.78, 446.62 348.00 C 447.61 348.00, 448.39 320.50, 449.38 317.17 C 450.38 317.17, 451.16 323.95, 452.15 329.50 C 453.15 335.05, 453.93 345.78, 454.92 348.00 C 455.92 348.00, 456.70 341.83, 457.69 341.83 C 458.69 341.83, 459.46 346.89, 460.46 348.00 C 461.46 348.00, 462.23 348.00, 463.23 348.00 C 464.23 348.00, 465.00 348.00, 466.00 348.00 C 467.00 346.89, 467.77 341.83, 468.77 341.83 C 469.77 341.83, 470.54 348.00, 471.54 348.00 C 472.54 345.78, 473.31 330.61, 474.31 329.50 C 475.30 329.50, 476.08 338.50, 477.08 341.83 C 478.07 345.16, 478.85 348.00, 479.85 348.00 C 480.84 346.89, 481.62 335.67, 482.62 335.67 C 483.61 335.67, 484.39 348.00, 485.38 348.00 C 486.38 348.00, 487.16 337.89, 488.15 335.67 C 489.15 335.67, 489.93 335.67, 490.92 335.67 C 491.92 336.78, 492.70 339.61, 493.69 341.83 C 494.69 344.05, 495.46 348.00, 496.46 348.00 C 497.46 346.89, 498.23 339.00, 499.23 335.67 C 500.23 332.34, 501.00 329.50, 502.00 329.50 C 503.00 330.61, 503.77 339.61, 504.77 341.83 C 505.77 341.83, 506.54 341.83, 507.54 341.83 C 508.54 339.61, 509.31 331.72, 510.31 329.50 C 511.30 329.50, 512.08 329.50, 513.08 329.50 C 514.07 332.83, 514.85 345.78, 515.85 348.00 C 516.84 348.00, 517.62 344.05, 518.62 341.83 C 519.61 339.61, 520.39 337.89, 521.38 335.67 C 522.38 333.45, 523.16 331.72, 524.15 329.50 C 525.15 327.28, 525.93 326.66, 526.92 323.33 C 527.92 320.00, 528.70 311.00, 529.69 311.00 C 530.69 311.00, 531.46 316.67, 532.46 323.33 C 533.46 329.99, 534.23 344.67, 535.23 348.00 C 536.23 348.00, 537.00 342.94, 538.00 341.83 C 539.00 341.83, 539.77 341.83, 540.77 341.83 C 541.77 337.39, 542.54 326.05, 543.54 317.17 C 544.54 308.28, 545.31 292.50, 546.31 292.50 C 547.30 295.83, 548.08 329.01, 549.08 335.67 C 550.07 335.67, 550.85 335.67, 551.85 329.50 C 552.84 320.62, 553.62 289.66, 554.62 286.33 C 555.61 286.33, 556.39 302.12, 557.38 311.00 C 558.38 319.88, 559.16 334.56, 560.15 335.67 C 561.15 335.67, 561.93 319.39, 562.92 317.17 C 563.92 317.17, 564.70 318.89, 565.69 323.33 C 566.69 327.77, 567.46 338.50, 568.46 341.83 C 569.46 341.83, 570.23 341.83, 571.23 341.83 C 572.23 340.72, 573.00 335.67, 574.00 335.67 C 575.00 336.78, 575.77 348.00, 576.77 348.00 C 577.77 348.00, 578.54 347.88, 579.54 335.67 C 580.54 323.46, 581.31 283.49, 582.31 280.16 C 583.30 280.16, 584.08 306.06, 585.08 317.17 C 586.07 328.27, 586.85 338.50, 587.85 341.83 C 588.84 341.83, 589.62 335.67, 590.62 335.67 C 591.61 336.78, 592.39 345.78, 593.38 348.00 C 594.38 348.00, 595.16 348.00, 596.15 348.00 C 597.15 346.89, 597.93 341.83, 598.92 341.83 C 599.92 341.83, 600.70 346.89, 601.69 348.00 C 602.69 348.00, 603.46 348.00, 604.46 348.00 C 605.46 345.78, 606.23 335.67, 607.23 335.67 C 608.23 335.67, 609.00 348.00, 610.00 348.00 C 611.00 341.34, 611.77 304.21, 612.77 298.66 C 613.77 298.66, 614.54 317.17, 615.54 317.17 C 616.54 309.40, 617.31 255.50, 618.31 255.50 C 619.30 258.83, 620.08 319.02, 621.08 335.67 C 622.07 348.00, 622.85 348.00, 623.85 348.00 C 624.84 345.78, 625.62 331.10, 626.62 323.33 C 627.61 315.56, 628.39 304.83, 629.38 304.83 C 630.38 309.27, 631.16 340.23, 632.15 348.00 C 633.15 348.00, 633.93 348.00, 634.92 348.00 C 635.92 344.67, 636.70 332.83, 637.69 329.50 C 638.69 329.50, 639.46 329.50, 640.46 329.50 C 641.46 331.72, 642.23 339.61, 643.23 341.83 C 644.23 341.83, 645.00 341.83, 646.00 341.83 C 647.00 341.83, 647.77 341.83, 648.77 341.83 C 649.77 341.83, 650.54 341.83, 651.54 341.83 C 652.54 342.94, 653.31 348.00, 654.31 348.00 C 655.30 348.00, 656.08 344.05, 657.08 341.83 C 658.07 339.61, 658.85 335.67, 659.85 335.67 C 660.84 336.78, 661.62 348.00, 662.62 348.00 C 663.61 348.00, 664.39 336.78, 665.38 335.67 C 666.38 335.67, 667.16 340.72, 668.15 341.83 C 669.15 341.83, 669.93 341.83, 670.92 341.83 C 671.92 339.61, 672.70 329.50, 673.69 329.50 C 674.69 329.50, 675.46 340.72, 676.46 341.83 C 677.46 341.83, 678.23 335.67, 679.23 335.67 C 680.23 335.67, 681.00 341.83, 682.00 341.83 C 683.00 341.83, 683.77 335.67, 684.77 335.67 C 685.77 336.78, 686.54 345.78, 687.54 348.00 C 688.54 348.00, 689.31 348.00, 690.31 348.00 C 691.30 348.00, 692.08 348.00, 693.08 348.00 C 694.07 346.89, 694.85 341.83, 695.85 341.83 C 696.84 341.83, 697.62 348.00, 698.62 348.00 C 699.61 348.00, 700.39 346.27, 701.38 341.83 C 702.38 337.39, 703.16 323.33, 704.15 323.33 C 705.15 324.44, 705.93 343.56, 706.92 348.00 C 707.92 348.00, 708.70 348.00, 709.69 348.00 C 710.69 346.89, 711.46 342.94, 712.46 341.83 C 713.46 341.83, 714.23 341.83, 715.23 341.83 C 716.23 339.61, 717.00 329.50, 718.00 329.50 C 719.00 329.50, 719.77 338.50, 720.77 341.83 C 721.77 345.16, 722.54 346.89, 723.54 348.00 C 724.54 348.00, 725.31 348.00, 726.31 348.00 C 727.30 343.56, 728.08 324.44, 729.08 323.33 C 730.07 323.33, 730.85 337.39, 731.85 341.83 C 732.84 346.27, 733.62 348.00, 734.62 348.00 C 735.61 346.89, 736.39 339.00, 737.38 335.67 C 738.38 332.34, 739.16 329.50, 740.15 329.50 C 741.15 331.72, 741.93 345.78, 742.92 348.00 C 743.92 348.00, 744.70 342.94, 745.69 341.83 C 746.69 341.83, 747.46 341.83, 748.46 341.83 C 749.46 342.94, 750.23 348.00, 751.23 348.00 C 752.23 348.00, 753.00 341.83, 754.00 341.83 C 755.00 341.83, 755.77 348.00, 756.77 348.00 C 757.77 348.00, 758.54 341.83, 759.54 341.83 C 760.54 341.83, 761.31 346.89, 762.31 348.00 C 763.30 348.00, 764.08 348.00, 765.08 348.00 C 766.07 348.00, 766.85 348.00, 767.85 348.00 C 768.84 348.00, 769.62 348.00, 770.62 348.00 C 771.61 336.90, 772.39 287.44, 773.38 286.33 C 774.38 286.33, 775.16 331.84, 776.15 341.83 C 777.15 341.83, 777.93 341.83, 778.92 341.83 C 779.92 342.94, 780.70 348.00, 781.69 348.00 C 782.69 348.00, 783.46 341.83, 784.46 341.83 C 785.46 341.83, 786.23 348.00, 787.23 348.00 C 788.23 346.89, 789.00 339.00, 790.00 335.67 C 791.00 332.34, 791.77 329.50, 792.77 329.50 C 793.77 330.61, 794.54 338.50, 795.54 341.83 C 796.54 345.16, 797.31 348.00, 798.31 348.00 C 799.30 348.00, 800.08 342.94, 801.08 341.83 C 802.07 341.83, 802.85 341.83, 803.85 341.83 C 804.84 340.72, 805.62 335.67, 806.62 335.67 C 807.61 335.67, 808.39 340.72, 809.38 341.83 C 810.38 341.83, 811.16 341.83, 812.15 341.83 C 813.15 341.83, 813.93 341.83, 814.92 341.83 C 815.92 342.94, 816.70 346.89, 817.69 348.00 C 818.69 348.00, 819.46 348.00, 820.46 348.00 C 821.46 346.89, 822.23 342.94, 823.23 341.83 C 824.23 341.83, 825.00 341.83, 826.00 341.83 C 827.00 340.72, 827.77 336.78, 828.77 335.67 C 829.77 335.67, 830.54 335.67, 831.54 335.67 C 832.54 336.78, 833.31 339.61, 834.31 341.83 C 835.30 344.05, 836.08 348.00, 837.08 348.00 C 838.07 346.89, 838.85 335.67, 839.85 335.67 C 840.84 335.67, 841.62 348.00, 842.62 348.00 C 843.61 346.89, 844.39 330.61, 845.38 329.50 C 846.38 329.50, 847.16 340.72, 848.15 341.83 C 849.15 341.83, 849.93 335.67, 850.92 335.67 C 851.92 335.67, 852.70 340.72, 853.69 341.83 C 854.69 341.83, 855.46 341.83, 856.46 341.83 C 857.46 340.72, 858.23 336.78, 859.23 335.67 C 860.23 335.67, 861.00 335.67, 862.00 335.67 C 863.00 337.89, 863.77 348.00, 864.77 348.00 C 865.77 345.78, 866.54 324.44, 867.54 323.33 C 868.54 323.33, 869.31 339.61, 870.31 341.83 C 871.30 341.83, 872.08 336.78, 873.08 335.67 C 874.07 335.67, 874.85 335.67, 875.85 335.67 C 876.84 337.89, 877.62 345.78, 878.62 348.00 C 879.61 348.00, 880.39 348.00, 881.38 348.00 C 882.38 345.78, 883.16 337.89, 884.15 335.67 C 885.15 335.67, 885.93 335.67, 886.92 335.67 C 887.92 334.56, 888.70 330.61, 889.69 329.50 C 890.69 329.50, 891.46 329.50, 892.46 329.50 C 893.46 326.17, 894.23 329.50, 895.23 311.00 C 896.23 286.58, 897.00 193.83, 898.00 193.83 C 899.00 196.05, 899.77 297.80, 900.77 323.33 C 901.77 335.67, 902.54 332.34, 903.54 335.67 C 904.54 339.00, 905.31 341.83, 906.31 341.83 C 907.30 326.29, 908.08 269.31, 909.08 249.33 C 910.07 230.83, 910.85 230.83, 911.85 230.83 C 912.84 239.71, 913.62 284.23, 914.62 298.66 C 915.61 311.00, 916.39 307.67, 917.38 311.00 C 918.38 314.33, 919.16 317.17, 920.15 317.17 C 921.15 317.17, 921.93 317.17, 922.92 311.00 C 923.92 301.01, 924.70 261.66, 925.69 261.66 C 926.69 261.66, 927.46 311.00, 928.46 311.00 C 929.46 289.91, 930.23 144.49, 931.23 144.49 C 932.23 148.93, 933.00 299.03, 934.00 335.67 C 935.00 348.00, 935.77 346.89, 936.77 348.00 C 937.77 348.00, 938.54 344.05, 939.54 341.83 C 940.54 339.61, 941.31 339.00, 942.31 335.67 C 943.30 332.34, 944.08 327.77, 945.08 323.33 C 946.07 318.89, 946.85 311.00, 947.85 311.00 C 948.84 312.11, 949.62 322.84, 950.62 329.50 C 951.61 336.16, 952.39 344.67, 953.38 348.00 C 954.38 348.00, 955.16 348.00, 956.15 348.00 C 957.15 348.00, 957.93 348.00, 958.92 348.00 C 959.92 348.00, 960.70 348.00, 961.69 348.00 C 962.69 348.00, 963.46 348.00, 964.46 348.00 C 965.46 342.45, 966.23 322.72, 967.23 317.17 C 968.23 317.17, 969.00 317.17, 970.00 317.17 C 971.00 321.61, 971.77 338.50, 972.77 341.83 C 973.77 341.83, 974.54 335.67, 975.54 335.67 C 976.54 336.78, 977.31 348.00, 978.31 348.00 C 979.30 343.56, 980.08 311.00, 981.08 311.00 C 982.07 311.00, 982.85 343.56, 983.85 348.00 C 984.84 348.00, 985.62 335.67, 986.62 335.67 C 987.61 335.67, 988.39 345.78, 989.38 348.00 C 990.38 348.00, 991.16 348.00, 992.15 348.00 C 993.15 348.00, 993.93 348.00, 994.92 348.00 C 995.92 342.45, 996.70 322.72, 997.69 317.17 C 998.69 317.17, 999.46 317.17, 1000.46 317.17 C 1001.46 321.61, 1002.23 341.83, 1003.23 341.83 C 1004.23 339.61, 1005.00 304.83, 1006.00 304.83 C 1007.00 305.94, 1007.77 340.23, 1008.77 348.00 C 1009.77 348.00, 1010.54 348.00, 1011.54 348.00 C 1012.54 348.00, 1013.31 348.00, 1014.31 348.00 C 1015.30 348.00, 1016.08 348.00, 1017.08 348.00 C 1018.07 348.00, 1018.85 348.00, 1019.85 348.00 C 1020.84 313.59, 1021.62 162.38, 1022.62 156.83 C 1023.61 156.83, 1024.39 282.75, 1025.38 317.17 C 1026.38 348.00, 1027.16 348.00, 1028.15 348.00 C 1029.15 336.90, 1029.93 255.50, 1030.92 255.50 C 1031.92 255.50, 1032.70 331.35, 1033.69 348.00 C 1034.69 348.00, 1035.46 348.00, 1036.46 348.00 C 1037.46 348.00, 1038.23 348.00, 1039.23 348.00 C 1040.23 348.00, 1041.00 348.00, 1042.00 348.00 C 1043.00 348.00, 1043.77 348.00, 1044.77 348.00 C 1045.77 348.00, 1046.54 348.00, 1047.54 348.00 C 1048.54 348.00, 1049.31 348.00, 1050.31 348.00 C 1051.30 348.00, 1052.08 348.00, 1053.08 348.00 C 1054.07 348.00, 1054.85 348.00, 1055.85 348.00 C 1056.84 348.00, 1057.62 348.00, 1058.62 348.00 C 1059.61 348.00, 1060.39 348.00, 1061.38 348.00 C 1062.38 346.89, 1063.16 348.00, 1064.15 341.83 C 1065.15 330.73, 1065.93 286.33, 1066.92 286.33 C 1067.92 286.33, 1068.70 330.73, 1069.69 341.83 C 1070.69 348.00, 1071.46 346.89, 1072.46 348.00 C 1073.46 348.00, 1074.23 348.00, 1075.23 348.00 C 1076.23 348.00, 1077.50 348.00, 1078.00 348.00 L 1078.00 348.00 L 70.00 348.00 Z" fill="url(#daily-area)"/>
    <path d="M 70.00 348.00 C 70.66 346.52, 71.44 343.31, 72.77 341.83 C 74.10 341.83, 74.21 341.83, 75.54 341.83 C 76.87 342.20, 76.98 343.08, 78.31 343.37 C 79.64 343.37, 79.75 343.37, 81.08 343.07 C 82.41 342.70, 82.52 342.56, 83.85 341.83 C 85.18 341.11, 85.29 340.68, 86.62 340.04 C 87.94 339.41, 88.06 339.39, 89.38 339.18 C 90.71 339.18, 90.82 339.18, 92.15 339.18 C 93.48 339.18, 93.59 339.18, 94.92 339.18 C 96.25 338.97, 96.36 338.53, 97.69 338.32 C 99.02 338.32, 99.13 338.32, 100.46 338.32 C 101.79 338.32, 101.90 338.32, 103.23 338.32 C 104.56 338.73, 104.67 339.84, 106.00 340.04 C 107.33 340.04, 107.44 339.18, 108.77 339.18 C 110.10 339.18, 110.21 339.62, 111.54 340.04 C 112.87 340.47, 112.98 340.75, 114.31 340.97 C 115.64 340.97, 115.75 340.97, 117.08 340.97 C 118.41 340.75, 118.52 340.04, 119.85 340.04 C 121.18 340.04, 121.29 340.75, 122.62 340.97 C 123.94 340.97, 124.06 340.97, 125.38 340.97 C 126.71 341.18, 126.82 341.63, 128.15 341.83 C 129.48 341.83, 129.59 341.83, 130.92 341.83 C 132.25 341.40, 132.36 340.25, 133.69 340.04 C 135.02 340.04, 135.13 340.33, 136.46 340.97 C 137.79 341.61, 137.90 342.06, 139.23 342.70 C 140.56 343.33, 140.67 343.40, 142.00 343.62 C 143.33 343.62, 143.44 343.62, 144.77 343.62 C 146.10 343.62, 146.21 343.62, 147.54 343.62 C 148.87 343.62, 148.98 343.62, 150.31 343.62 C 151.64 344.04, 151.75 345.35, 153.08 345.35 C 154.41 345.35, 154.52 344.47, 155.85 343.62 C 157.18 342.78, 157.29 342.26, 158.62 341.83 C 159.94 341.83, 160.06 341.83, 161.38 341.83 C 162.71 341.83, 162.82 341.83, 164.15 341.83 C 165.48 341.83, 165.59 341.83, 166.92 341.83 C 168.25 341.83, 168.36 341.83, 169.69 341.83 C 171.02 341.83, 171.13 341.83, 172.46 341.83 C 173.79 342.04, 173.90 342.27, 175.23 342.70 C 176.56 343.13, 176.67 343.62, 178.00 343.62 C 179.33 342.57, 179.44 339.80, 180.77 338.32 C 182.10 337.45, 182.21 337.66, 183.54 337.45 C 184.87 337.45, 184.98 337.45, 186.31 337.45 C 187.64 337.45, 187.75 337.45, 189.08 337.45 C 190.41 337.23, 190.52 336.53, 191.85 336.53 C 193.18 336.53, 193.29 337.23, 194.62 337.45 C 195.94 337.45, 196.06 337.45, 197.38 337.45 C 198.71 338.30, 198.82 340.56, 200.15 340.97 C 201.48 340.97, 201.59 339.61, 202.92 339.18 C 204.25 339.18, 204.36 339.18, 205.69 339.18 C 207.02 339.18, 207.13 339.18, 208.46 339.18 C 209.79 339.18, 209.90 339.18, 211.23 339.18 C 212.56 338.97, 212.67 338.53, 214.00 338.32 C 215.33 338.32, 215.44 338.32, 216.77 338.32 C 218.10 338.11, 218.21 337.45, 219.54 337.45 C 220.87 338.09, 220.98 339.92, 222.31 340.97 C 223.64 341.83, 223.75 341.63, 225.08 341.83 C 226.41 341.83, 226.52 341.83, 227.85 341.83 C 229.18 341.83, 229.29 341.83, 230.62 341.83 C 231.94 341.63, 232.06 341.18, 233.38 340.97 C 234.71 340.97, 234.82 340.97, 236.15 340.97 C 237.48 341.18, 237.59 341.83, 238.92 341.83 C 240.25 341.83, 240.36 341.40, 241.69 340.97 C 243.02 340.54, 243.13 340.47, 244.46 340.04 C 245.79 339.62, 245.90 339.39, 247.23 339.18 C 248.56 339.18, 248.67 339.18, 250.00 339.18 C 251.33 339.61, 251.44 340.33, 252.77 340.97 C 254.10 341.61, 254.21 341.20, 255.54 341.83 C 256.87 342.47, 256.98 343.19, 258.31 343.62 C 259.64 343.62, 259.75 343.62, 261.08 343.62 C 262.41 343.62, 262.52 343.62, 263.85 343.62 C 265.18 342.99, 265.29 341.61, 266.62 340.97 C 267.94 340.97, 268.06 340.97, 269.38 340.97 C 270.71 340.97, 270.82 340.97, 272.15 340.97 C 273.48 340.33, 273.59 338.95, 274.92 338.32 C 276.25 338.32, 276.36 338.32, 277.69 338.32 C 279.02 338.32, 279.13 338.32, 280.46 338.32 C 281.79 338.32, 281.90 338.32, 283.23 338.32 C 284.56 339.37, 284.67 341.85, 286.00 342.70 C 287.33 342.70, 287.44 342.25, 288.77 341.83 C 290.10 341.42, 290.21 341.18, 291.54 340.97 C 292.87 340.97, 292.98 340.97, 294.31 340.97 C 295.64 340.97, 295.75 340.97, 297.08 340.97 C 298.41 340.97, 298.52 340.97, 299.85 340.97 C 301.18 340.75, 301.29 340.68, 302.62 340.04 C 303.94 339.41, 304.06 338.32, 305.38 338.32 C 306.71 338.32, 306.82 339.41, 308.15 340.04 C 309.48 340.68, 309.59 340.33, 310.92 340.97 C 312.25 341.61, 312.36 342.28, 313.69 342.70 C 315.02 342.70, 315.13 342.70, 316.46 342.70 C 317.79 342.28, 317.90 341.61, 319.23 340.97 C 320.56 340.33, 320.67 340.97, 322.00 340.04 C 323.33 338.56, 323.44 336.28, 324.77 334.80 C 326.10 333.88, 326.21 334.31, 327.54 333.88 C 328.87 333.45, 328.98 333.43, 330.31 333.01 C 331.64 332.60, 331.75 332.36, 333.08 332.15 C 334.41 332.15, 334.52 332.15, 335.85 332.15 C 337.18 332.15, 337.29 332.15, 338.62 332.15 C 339.94 332.15, 340.06 332.15, 341.38 332.15 C 342.71 333.84, 342.82 337.49, 344.15 339.18 C 345.48 339.18, 345.59 339.18, 346.92 339.18 C 348.25 339.18, 348.36 339.18, 349.69 339.18 C 351.02 339.61, 351.13 340.76, 352.46 340.97 C 353.79 340.97, 353.90 340.89, 355.23 340.04 C 356.56 339.20, 356.67 337.45, 358.00 337.45 C 359.33 337.45, 359.44 339.42, 360.77 340.04 C 362.10 340.04, 362.21 340.04, 363.54 340.04 C 364.87 337.72, 364.98 333.10, 366.31 330.36 C 367.64 328.64, 367.75 330.32, 369.08 328.64 C 370.41 326.95, 370.52 324.40, 371.85 323.33 C 373.18 323.33, 373.29 323.33, 374.62 324.20 C 375.94 325.68, 376.06 328.43, 377.38 329.50 C 378.71 329.50, 378.82 329.07, 380.15 328.64 C 381.48 328.21, 381.59 327.71, 382.92 327.71 C 384.25 330.03, 384.36 335.36, 385.69 338.32 C 387.02 340.04, 387.13 338.56, 388.46 340.04 C 389.79 341.52, 389.90 343.85, 391.23 344.48 C 392.56 344.48, 392.67 343.33, 394.00 342.70 C 395.33 342.06, 395.44 342.04, 396.77 341.83 C 398.10 341.83, 398.21 341.83, 399.54 341.83 C 400.87 342.04, 400.98 342.49, 402.31 342.70 C 403.64 342.70, 403.75 342.70, 405.08 342.70 C 406.41 342.70, 406.52 342.70, 407.85 342.70 C 409.18 342.70, 409.29 342.70, 410.62 342.70 C 411.94 342.49, 412.06 341.83, 413.38 341.83 C 414.71 341.83, 414.82 342.49, 416.15 342.70 C 417.48 342.70, 417.59 342.70, 418.92 342.70 C 420.25 342.70, 420.36 342.70, 421.69 342.70 C 423.02 342.70, 423.13 342.70, 424.46 342.70 C 425.79 342.70, 425.90 342.70, 427.23 342.70 C 428.56 342.70, 428.67 342.70, 430.00 342.70 C 431.33 343.33, 431.44 344.92, 432.77 345.35 C 434.10 345.35, 434.21 344.90, 435.54 344.48 C 436.87 344.07, 436.98 344.26, 438.31 343.62 C 439.64 342.99, 439.75 343.62, 441.08 341.83 C 442.41 339.92, 442.52 336.94, 443.85 335.67 C 445.18 335.67, 445.29 336.53, 446.62 336.53 C 447.94 335.89, 448.06 334.49, 449.38 333.01 C 450.71 331.53, 450.82 330.78, 452.15 330.36 C 453.48 330.36, 453.59 330.86, 454.92 331.29 C 456.25 331.72, 456.36 331.53, 457.69 332.15 C 459.02 332.77, 459.13 332.15, 460.46 333.88 C 461.79 335.77, 461.90 338.56, 463.23 340.04 C 464.56 340.04, 464.67 340.04, 466.00 340.04 C 467.33 340.90, 467.44 342.14, 468.77 343.62 C 470.10 345.10, 470.21 346.21, 471.54 346.21 C 472.87 346.21, 472.98 344.24, 474.31 343.62 C 475.64 343.62, 475.75 343.62, 477.08 343.62 C 478.41 343.62, 478.52 343.62, 479.85 343.62 C 481.18 343.19, 481.29 342.26, 482.62 341.83 C 483.94 341.83, 484.06 341.83, 485.38 341.83 C 486.71 341.63, 486.82 341.61, 488.15 340.97 C 489.48 340.33, 489.59 339.18, 490.92 339.18 C 492.25 339.18, 492.36 340.33, 493.69 340.97 C 495.02 341.61, 495.13 341.83, 496.46 341.83 C 497.79 341.61, 497.90 340.68, 499.23 340.04 C 500.56 339.41, 500.67 339.60, 502.00 339.18 C 503.33 338.77, 503.44 338.32, 504.77 338.32 C 506.10 338.32, 506.21 339.18, 507.54 339.18 C 508.87 339.18, 508.98 338.95, 510.31 338.32 C 511.64 337.68, 511.75 336.96, 513.08 336.53 C 514.41 336.53, 514.52 336.53, 515.85 336.53 C 517.18 336.75, 517.29 337.03, 518.62 337.45 C 519.94 337.88, 520.06 338.32, 521.38 338.32 C 522.71 338.10, 522.82 337.60, 524.15 336.53 C 525.48 335.46, 525.59 335.14, 526.92 333.88 C 528.25 332.62, 528.36 332.13, 529.69 331.29 C 531.02 330.44, 531.13 330.58, 532.46 330.36 C 533.79 330.36, 533.90 330.36, 535.23 330.36 C 536.56 330.36, 536.67 330.36, 538.00 330.36 C 539.33 330.58, 539.44 331.29, 540.77 331.29 C 542.10 331.08, 542.21 330.98, 543.54 329.50 C 544.87 328.02, 544.98 325.33, 546.31 325.12 C 547.64 325.12, 547.75 327.58, 549.08 328.64 C 550.41 329.50, 550.52 329.50, 551.85 329.50 C 553.18 327.59, 553.29 323.85, 554.62 320.68 C 555.94 317.51, 556.06 317.57, 557.38 316.30 C 558.71 315.38, 558.82 315.60, 560.15 315.38 C 561.48 315.38, 561.59 315.38, 562.92 315.38 C 564.25 316.44, 564.36 318.54, 565.69 319.82 C 567.02 320.68, 567.13 320.04, 568.46 320.68 C 569.79 321.32, 569.90 320.68, 571.23 322.47 C 572.56 324.59, 572.67 326.54, 574.00 329.50 C 575.33 332.46, 575.44 333.53, 576.77 334.80 C 578.10 334.80, 578.21 334.80, 579.54 334.80 C 580.87 333.53, 580.98 330.98, 582.31 329.50 C 583.64 328.64, 583.75 328.84, 585.08 328.64 C 586.41 328.64, 586.52 328.64, 587.85 328.64 C 589.18 328.41, 589.29 327.71, 590.62 327.71 C 591.94 327.92, 592.06 329.07, 593.38 329.50 C 594.71 329.50, 594.82 329.50, 596.15 329.50 C 597.48 329.71, 597.59 329.50, 598.92 330.36 C 600.25 332.89, 600.36 336.66, 601.69 340.04 C 603.02 343.43, 603.13 343.63, 604.46 344.48 C 605.79 344.48, 605.90 343.62, 607.23 343.62 C 608.56 343.83, 608.67 345.35, 610.00 345.35 C 611.33 344.08, 611.44 341.07, 612.77 338.32 C 614.10 335.56, 614.21 337.90, 615.54 333.88 C 616.87 329.85, 616.98 324.92, 618.31 321.54 C 619.64 319.82, 619.75 320.23, 621.08 319.82 C 622.41 319.82, 622.52 319.82, 623.85 319.82 C 625.18 319.39, 625.29 319.82, 626.62 318.03 C 627.94 316.12, 628.06 311.86, 629.38 311.86 C 630.71 312.08, 630.82 316.20, 632.15 318.95 C 633.48 321.71, 633.59 319.75, 634.92 323.33 C 636.25 326.91, 636.36 331.55, 637.69 333.88 C 639.02 333.88, 639.13 333.43, 640.46 333.01 C 641.79 332.60, 641.90 332.15, 643.23 332.15 C 644.56 332.58, 644.67 332.91, 646.00 334.80 C 647.33 336.70, 647.44 338.99, 648.77 340.04 C 650.10 340.04, 650.21 339.39, 651.54 339.18 C 652.87 339.18, 652.98 339.18, 654.31 339.18 C 655.64 339.61, 655.75 340.33, 657.08 340.97 C 658.41 341.61, 658.52 341.42, 659.85 341.83 C 661.18 342.25, 661.29 342.70, 662.62 342.70 C 663.94 342.70, 664.06 342.04, 665.38 341.83 C 666.71 341.83, 666.82 341.83, 668.15 341.83 C 669.48 341.83, 669.59 341.83, 670.92 341.83 C 672.25 341.20, 672.36 339.82, 673.69 339.18 C 675.02 339.18, 675.13 339.18, 676.46 339.18 C 677.79 339.18, 677.90 339.18, 679.23 339.18 C 680.56 338.97, 680.67 338.53, 682.00 338.32 C 683.33 338.32, 683.44 338.32, 684.77 338.32 C 686.10 338.53, 686.21 338.77, 687.54 339.18 C 688.87 339.60, 688.98 339.20, 690.31 340.04 C 691.64 340.89, 691.75 342.06, 693.08 342.70 C 694.41 342.70, 694.52 342.70, 695.85 342.70 C 697.18 343.13, 697.29 344.06, 698.62 344.48 C 699.94 344.48, 700.06 344.48, 701.38 344.48 C 702.71 344.06, 702.82 343.13, 704.15 342.70 C 705.48 342.70, 705.59 342.70, 706.92 342.70 C 708.25 342.70, 708.36 342.70, 709.69 342.70 C 711.02 342.49, 711.13 342.04, 712.46 341.83 C 713.79 341.83, 713.90 341.83, 715.23 341.83 C 716.56 341.20, 716.67 339.82, 718.00 339.18 C 719.33 339.18, 719.44 339.18, 720.77 339.18 C 722.10 340.02, 722.21 341.85, 723.54 342.70 C 724.87 342.70, 724.98 342.70, 726.31 342.70 C 727.64 341.85, 727.75 340.02, 729.08 339.18 C 730.41 339.18, 730.52 339.18, 731.85 339.18 C 733.18 339.39, 733.29 339.62, 734.62 340.04 C 735.94 340.47, 736.06 340.97, 737.38 340.97 C 738.71 340.76, 738.82 339.61, 740.15 339.18 C 741.48 339.18, 741.59 339.18, 742.92 339.18 C 744.25 338.97, 744.36 338.32, 745.69 338.32 C 747.02 338.75, 747.13 340.13, 748.46 340.97 C 749.79 341.81, 749.90 341.83, 751.23 341.83 C 752.56 341.83, 752.67 340.97, 754.00 340.97 C 755.33 341.18, 755.44 341.85, 756.77 342.70 C 758.10 343.54, 758.21 344.06, 759.54 344.48 C 760.87 344.48, 760.98 344.48, 762.31 344.48 C 763.64 344.69, 763.75 344.93, 765.08 345.35 C 766.41 345.76, 766.52 346.00, 767.85 346.21 C 769.18 346.21, 769.29 346.21, 770.62 346.21 C 771.94 344.32, 772.06 340.42, 773.38 338.32 C 774.71 337.45, 774.82 337.66, 776.15 337.45 C 777.48 337.45, 777.59 337.45, 778.92 337.45 C 780.25 337.45, 780.36 337.45, 781.69 337.45 C 783.02 337.23, 783.13 336.75, 784.46 336.53 C 785.79 336.53, 785.90 336.53, 787.23 336.53 C 788.56 336.12, 788.67 334.80, 790.00 334.80 C 791.33 335.87, 791.44 339.49, 792.77 340.97 C 794.10 340.97, 794.21 340.97, 795.54 340.97 C 796.87 341.18, 796.98 341.83, 798.31 341.83 C 799.64 341.83, 799.75 341.18, 801.08 340.97 C 802.41 340.97, 802.52 340.97, 803.85 340.97 C 805.18 340.54, 805.29 339.40, 806.62 339.18 C 807.94 339.18, 808.06 339.41, 809.38 340.04 C 810.71 340.68, 810.82 341.40, 812.15 341.83 C 813.48 341.83, 813.59 341.83, 814.92 341.83 C 816.25 341.83, 816.36 341.83, 817.69 341.83 C 819.02 342.04, 819.13 342.49, 820.46 342.70 C 821.79 342.70, 821.90 342.70, 823.23 342.70 C 824.56 342.92, 824.67 343.62, 826.00 343.62 C 827.33 343.62, 827.44 343.13, 828.77 342.70 C 830.10 342.27, 830.21 342.04, 831.54 341.83 C 832.87 341.83, 832.98 341.83, 834.31 341.83 C 835.64 341.83, 835.75 341.83, 837.08 341.83 C 838.41 341.40, 838.52 340.25, 839.85 340.04 C 841.18 340.04, 841.29 340.97, 842.62 340.97 C 843.94 340.76, 844.06 339.40, 845.38 339.18 C 846.71 339.18, 846.82 339.84, 848.15 340.04 C 849.48 340.04, 849.59 340.04, 850.92 340.04 C 852.25 340.04, 852.36 340.04, 853.69 340.04 C 855.02 339.84, 855.13 339.39, 856.46 339.18 C 857.79 339.18, 857.90 339.18, 859.23 339.18 C 860.56 338.77, 860.67 337.45, 862.00 337.45 C 863.33 337.66, 863.44 340.04, 864.77 340.04 C 866.10 340.04, 866.21 337.87, 867.54 337.45 C 868.87 337.45, 868.98 338.32, 870.31 338.32 C 871.64 338.32, 871.75 337.88, 873.08 337.45 C 874.41 337.03, 874.52 336.53, 875.85 336.53 C 877.18 336.74, 877.29 337.47, 878.62 338.32 C 879.94 339.16, 880.06 340.04, 881.38 340.04 C 882.71 340.04, 882.82 338.32, 884.15 338.32 C 885.48 338.32, 885.59 340.04, 886.92 340.04 C 888.25 340.04, 888.36 338.94, 889.69 338.32 C 891.02 337.70, 891.13 338.32, 892.46 337.45 C 893.79 336.39, 893.90 337.45, 895.23 333.88 C 896.56 327.74, 896.67 317.99, 898.00 311.86 C 899.33 308.35, 899.44 309.19, 900.77 308.35 C 902.10 308.35, 902.21 308.35, 903.54 308.35 C 904.87 308.55, 904.98 309.21, 906.31 309.21 C 907.64 306.68, 907.75 303.93, 909.08 297.80 C 910.41 291.67, 910.52 287.48, 911.85 283.68 C 913.18 281.95, 913.29 281.95, 914.62 281.95 C 915.94 285.55, 916.06 294.86, 917.38 298.66 C 918.71 298.66, 918.82 298.66, 920.15 297.80 C 921.48 296.75, 921.59 297.80, 922.92 294.29 C 924.25 290.69, 924.36 283.45, 925.69 282.82 C 927.02 282.82, 927.13 291.63, 928.46 291.63 C 929.79 290.79, 929.90 281.00, 931.23 279.30 C 932.56 279.30, 932.67 282.01, 934.00 284.54 C 935.33 287.07, 935.44 287.73, 936.77 289.85 C 938.10 291.96, 938.21 291.67, 939.54 293.36 C 940.87 295.05, 940.98 293.92, 942.31 296.88 C 943.64 299.84, 943.75 303.58, 945.08 305.69 C 946.41 305.69, 946.52 305.69, 947.85 305.69 C 949.18 312.04, 949.29 325.39, 950.62 332.15 C 951.94 333.88, 952.06 333.46, 953.38 333.88 C 954.71 333.88, 954.82 333.88, 956.15 333.88 C 957.48 334.10, 957.59 334.17, 958.92 334.80 C 960.25 335.44, 960.36 335.27, 961.69 336.53 C 963.02 337.79, 963.13 338.98, 964.46 340.04 C 965.79 340.97, 965.90 340.97, 967.23 340.97 C 968.56 340.76, 968.67 339.82, 970.00 339.18 C 971.33 338.54, 971.44 338.95, 972.77 338.32 C 974.10 337.68, 974.21 336.96, 975.54 336.53 C 976.87 336.53, 976.98 336.53, 978.31 336.53 C 979.64 335.27, 979.75 332.55, 981.08 331.29 C 982.41 331.29, 982.52 331.29, 983.85 331.29 C 985.18 331.91, 985.29 332.19, 986.62 333.88 C 987.94 335.56, 988.06 337.05, 989.38 338.32 C 990.71 339.18, 990.82 338.54, 992.15 339.18 C 993.48 339.82, 993.59 340.97, 994.92 340.97 C 996.25 340.33, 996.36 337.37, 997.69 336.53 C 999.02 336.53, 999.13 337.45, 1000.46 337.45 C 1001.79 337.45, 1001.90 337.45, 1003.23 336.53 C 1004.56 335.26, 1004.67 333.20, 1006.00 332.15 C 1007.33 332.15, 1007.44 332.15, 1008.77 332.15 C 1010.10 332.15, 1010.21 332.15, 1011.54 332.15 C 1012.87 332.15, 1012.98 332.15, 1014.31 332.15 C 1015.64 333.20, 1015.75 334.41, 1017.08 336.53 C 1018.41 338.65, 1018.52 340.97, 1019.85 340.97 C 1021.18 335.69, 1021.29 320.43, 1022.62 314.51 C 1023.94 314.51, 1024.06 315.87, 1025.38 316.30 C 1026.71 316.30, 1026.82 316.30, 1028.15 316.30 C 1029.48 313.12, 1029.59 306.23, 1030.92 303.04 C 1032.25 303.04, 1032.36 303.04, 1033.69 303.04 C 1035.02 303.04, 1035.13 303.04, 1036.46 303.04 C 1037.79 303.04, 1037.90 303.04, 1039.23 303.04 C 1040.56 309.60, 1040.67 322.74, 1042.00 330.36 C 1043.33 334.80, 1043.44 333.74, 1044.77 334.80 C 1046.10 334.80, 1046.21 334.80, 1047.54 334.80 C 1048.87 337.97, 1048.98 344.83, 1050.31 348.00 C 1051.64 348.00, 1051.75 348.00, 1053.08 348.00 C 1054.41 348.00, 1054.52 348.00, 1055.85 348.00 C 1057.18 348.00, 1057.29 348.00, 1058.62 348.00 C 1059.94 348.00, 1060.06 348.00, 1061.38 348.00 C 1062.71 347.79, 1062.82 348.00, 1064.15 347.14 C 1065.48 344.81, 1065.59 340.64, 1066.92 338.32 C 1068.25 337.45, 1068.36 337.66, 1069.69 337.45 C 1071.02 337.45, 1071.13 337.45, 1072.46 337.45 C 1073.79 337.45, 1073.90 337.45, 1075.23 337.45 C 1076.56 337.45, 1077.34 337.45, 1078.00 337.45" fill="none" stroke="#58a6ff" stroke-width="1.75" stroke-dasharray="5 7" stroke-linejoin="round" stroke-linecap="round" opacity="0.66" vector-effect="non-scaling-stroke"/>
    <path d="M 70.00 348.00 C 70.50 345.78, 71.77 336.78, 72.77 335.67 C 73.77 335.67, 74.54 339.61, 75.54 341.83 C 76.54 344.05, 77.31 348.00, 78.31 348.00 C 79.30 348.00, 80.08 344.05, 81.08 341.83 C 82.07 339.61, 82.85 337.89, 83.85 335.67 C 84.84 333.45, 85.62 329.50, 86.62 329.50 C 87.61 330.61, 88.39 340.72, 89.38 341.83 C 90.38 341.83, 91.16 335.67, 92.15 335.67 C 93.15 335.67, 93.93 340.72, 94.92 341.83 C 95.92 341.83, 96.70 341.83, 97.69 341.83 C 98.69 341.83, 99.46 341.83, 100.46 341.83 C 101.46 340.72, 102.23 335.67, 103.23 335.67 C 104.23 335.67, 105.00 341.83, 106.00 341.83 C 107.00 341.83, 107.77 335.67, 108.77 335.67 C 109.77 335.67, 110.54 339.61, 111.54 341.83 C 112.54 344.05, 113.31 348.00, 114.31 348.00 C 115.30 348.00, 116.08 344.05, 117.08 341.83 C 118.07 339.61, 118.85 335.67, 119.85 335.67 C 120.84 335.67, 121.62 340.72, 122.62 341.83 C 123.61 341.83, 124.39 341.83, 125.38 341.83 C 126.38 341.83, 127.16 341.83, 128.15 341.83 C 129.15 341.83, 129.93 341.83, 130.92 341.83 C 131.92 340.72, 132.70 335.67, 133.69 335.67 C 134.69 336.78, 135.46 345.78, 136.46 348.00 C 137.46 348.00, 138.23 348.00, 139.23 348.00 C 140.23 348.00, 141.00 348.00, 142.00 348.00 C 143.00 346.89, 143.77 342.94, 144.77 341.83 C 145.77 341.83, 146.54 341.83, 147.54 341.83 C 148.54 341.83, 149.31 341.83, 150.31 341.83 C 151.30 342.94, 152.08 348.00, 153.08 348.00 C 154.07 346.89, 154.85 337.89, 155.85 335.67 C 156.84 335.67, 157.62 335.67, 158.62 335.67 C 159.61 337.89, 160.39 346.89, 161.38 348.00 C 162.38 348.00, 163.16 342.94, 164.15 341.83 C 165.15 341.83, 165.93 341.83, 166.92 341.83 C 167.92 341.83, 168.70 341.83, 169.69 341.83 C 170.69 342.94, 171.46 348.00, 172.46 348.00 C 173.46 348.00, 174.23 342.94, 175.23 341.83 C 176.23 341.83, 177.00 341.83, 178.00 341.83 C 179.00 336.28, 179.77 312.11, 180.77 311.00 C 181.77 311.00, 182.54 330.12, 183.54 335.67 C 184.54 341.22, 185.31 340.72, 186.31 341.83 C 187.30 341.83, 188.08 341.83, 189.08 341.83 C 190.07 341.83, 190.85 341.83, 191.85 341.83 C 192.84 342.94, 193.62 348.00, 194.62 348.00 C 195.61 348.00, 196.39 344.05, 197.38 341.83 C 198.38 339.61, 199.16 339.00, 200.15 335.67 C 201.15 332.34, 201.93 323.33, 202.92 323.33 C 203.92 324.44, 204.70 338.50, 205.69 341.83 C 206.69 341.83, 207.46 341.83, 208.46 341.83 C 209.46 341.83, 210.23 341.83, 211.23 341.83 C 212.23 341.83, 213.00 341.83, 214.00 341.83 C 215.00 341.83, 215.77 341.83, 216.77 341.83 C 217.77 339.61, 218.54 329.50, 219.54 329.50 C 220.54 330.61, 221.31 344.67, 222.31 348.00 C 223.30 348.00, 224.08 348.00, 225.08 348.00 C 226.07 346.89, 226.85 342.94, 227.85 341.83 C 228.84 341.83, 229.62 341.83, 230.62 341.83 C 231.61 340.72, 232.39 335.67, 233.38 335.67 C 234.38 335.67, 235.16 341.83, 236.15 341.83 C 237.15 341.83, 237.93 335.67, 238.92 335.67 C 239.92 335.67, 240.70 340.72, 241.69 341.83 C 242.69 341.83, 243.46 341.83, 244.46 341.83 C 245.46 340.72, 246.23 335.67, 247.23 335.67 C 248.23 335.67, 249.00 339.61, 250.00 341.83 C 251.00 344.05, 251.77 346.89, 252.77 348.00 C 253.77 348.00, 254.54 348.00, 255.54 348.00 C 256.54 348.00, 257.31 348.00, 258.31 348.00 C 259.30 346.89, 260.08 342.94, 261.08 341.83 C 262.07 341.83, 262.85 341.83, 263.85 341.83 C 264.84 337.39, 265.62 317.17, 266.62 317.17 C 267.61 317.17, 268.39 336.28, 269.38 341.83 C 270.38 347.38, 271.16 348.00, 272.15 348.00 C 273.15 345.78, 273.93 329.50, 274.92 329.50 C 275.92 329.50, 276.70 345.78, 277.69 348.00 C 278.69 348.00, 279.46 342.94, 280.46 341.83 C 281.46 341.83, 282.23 341.83, 283.23 341.83 C 284.23 342.94, 285.00 348.00, 286.00 348.00 C 287.00 346.89, 287.77 336.78, 288.77 335.67 C 289.77 335.67, 290.54 341.83, 291.54 341.83 C 292.54 340.72, 293.31 329.50, 294.31 329.50 C 295.30 330.61, 296.08 345.78, 297.08 348.00 C 298.07 348.00, 298.85 344.05, 299.85 341.83 C 300.84 339.61, 301.62 336.78, 302.62 335.67 C 303.61 335.67, 304.39 335.67, 305.38 335.67 C 306.38 337.89, 307.16 345.78, 308.15 348.00 C 309.15 348.00, 309.93 348.00, 310.92 348.00 C 311.92 346.89, 312.70 341.83, 313.69 341.83 C 314.69 341.83, 315.46 348.00, 316.46 348.00 C 317.46 345.78, 318.23 332.83, 319.23 329.50 C 320.23 329.50, 321.00 329.50, 322.00 329.50 C 323.00 323.95, 323.77 298.66, 324.77 298.66 C 325.77 300.88, 326.54 334.06, 327.54 341.83 C 328.54 341.83, 329.31 341.83, 330.31 341.83 C 331.30 340.72, 332.08 335.67, 333.08 335.67 C 334.07 336.78, 334.85 348.00, 335.85 348.00 C 336.84 346.89, 337.62 332.83, 338.62 329.50 C 339.61 329.50, 340.39 329.50, 341.38 329.50 C 342.38 332.83, 343.16 345.78, 344.15 348.00 C 345.15 348.00, 345.93 342.94, 346.92 341.83 C 347.92 341.83, 348.70 341.83, 349.69 341.83 C 350.69 342.94, 351.46 348.00, 352.46 348.00 C 353.46 348.00, 354.23 348.00, 355.23 341.83 C 356.23 335.17, 357.00 311.00, 358.00 311.00 C 359.00 312.11, 359.77 341.34, 360.77 348.00 C 361.77 348.00, 362.54 348.00, 363.54 348.00 C 364.54 334.68, 365.31 277.33, 366.31 274.00 C 367.30 274.00, 368.08 322.84, 369.08 329.50 C 370.07 329.50, 370.85 311.00, 371.85 311.00 C 372.84 314.33, 373.62 341.34, 374.62 348.00 C 375.61 348.00, 376.39 348.00, 377.38 348.00 C 378.38 346.89, 379.16 342.94, 380.15 341.83 C 381.15 341.83, 381.93 341.83, 382.92 341.83 C 383.92 342.94, 384.70 348.00, 385.69 348.00 C 386.69 348.00, 387.46 342.94, 388.46 341.83 C 389.46 341.83, 390.23 341.83, 391.23 341.83 C 392.23 340.72, 393.00 335.67, 394.00 335.67 C 395.00 335.67, 395.77 340.72, 396.77 341.83 C 397.77 341.83, 398.54 341.83, 399.54 341.83 C 400.54 342.94, 401.31 346.89, 402.31 348.00 C 403.30 348.00, 404.08 348.00, 405.08 348.00 C 406.07 346.89, 406.85 342.94, 407.85 341.83 C 408.84 341.83, 409.62 341.83, 410.62 341.83 C 411.61 339.61, 412.39 329.50, 413.38 329.50 C 414.38 330.61, 415.16 345.78, 416.15 348.00 C 417.15 348.00, 417.93 341.83, 418.92 341.83 C 419.92 341.83, 420.70 346.89, 421.69 348.00 C 422.69 348.00, 423.46 348.00, 424.46 348.00 C 425.46 346.89, 426.23 342.94, 427.23 341.83 C 428.23 341.83, 429.00 341.83, 430.00 341.83 C 431.00 342.94, 431.77 348.00, 432.77 348.00 C 433.77 348.00, 434.54 344.05, 435.54 341.83 C 436.54 339.61, 437.31 336.78, 438.31 335.67 C 439.30 335.67, 440.08 335.67, 441.08 335.67 C 442.07 330.12, 442.85 304.83, 443.85 304.83 C 444.84 307.05, 445.62 345.78, 446.62 348.00 C 447.61 348.00, 448.39 320.50, 449.38 317.17 C 450.38 317.17, 451.16 323.95, 452.15 329.50 C 453.15 335.05, 453.93 345.78, 454.92 348.00 C 455.92 348.00, 456.70 341.83, 457.69 341.83 C 458.69 341.83, 459.46 346.89, 460.46 348.00 C 461.46 348.00, 462.23 348.00, 463.23 348.00 C 464.23 348.00, 465.00 348.00, 466.00 348.00 C 467.00 346.89, 467.77 341.83, 468.77 341.83 C 469.77 341.83, 470.54 348.00, 471.54 348.00 C 472.54 345.78, 473.31 330.61, 474.31 329.50 C 475.30 329.50, 476.08 338.50, 477.08 341.83 C 478.07 345.16, 478.85 348.00, 479.85 348.00 C 480.84 346.89, 481.62 335.67, 482.62 335.67 C 483.61 335.67, 484.39 348.00, 485.38 348.00 C 486.38 348.00, 487.16 337.89, 488.15 335.67 C 489.15 335.67, 489.93 335.67, 490.92 335.67 C 491.92 336.78, 492.70 339.61, 493.69 341.83 C 494.69 344.05, 495.46 348.00, 496.46 348.00 C 497.46 346.89, 498.23 339.00, 499.23 335.67 C 500.23 332.34, 501.00 329.50, 502.00 329.50 C 503.00 330.61, 503.77 339.61, 504.77 341.83 C 505.77 341.83, 506.54 341.83, 507.54 341.83 C 508.54 339.61, 509.31 331.72, 510.31 329.50 C 511.30 329.50, 512.08 329.50, 513.08 329.50 C 514.07 332.83, 514.85 345.78, 515.85 348.00 C 516.84 348.00, 517.62 344.05, 518.62 341.83 C 519.61 339.61, 520.39 337.89, 521.38 335.67 C 522.38 333.45, 523.16 331.72, 524.15 329.50 C 525.15 327.28, 525.93 326.66, 526.92 323.33 C 527.92 320.00, 528.70 311.00, 529.69 311.00 C 530.69 311.00, 531.46 316.67, 532.46 323.33 C 533.46 329.99, 534.23 344.67, 535.23 348.00 C 536.23 348.00, 537.00 342.94, 538.00 341.83 C 539.00 341.83, 539.77 341.83, 540.77 341.83 C 541.77 337.39, 542.54 326.05, 543.54 317.17 C 544.54 308.28, 545.31 292.50, 546.31 292.50 C 547.30 295.83, 548.08 329.01, 549.08 335.67 C 550.07 335.67, 550.85 335.67, 551.85 329.50 C 552.84 320.62, 553.62 289.66, 554.62 286.33 C 555.61 286.33, 556.39 302.12, 557.38 311.00 C 558.38 319.88, 559.16 334.56, 560.15 335.67 C 561.15 335.67, 561.93 319.39, 562.92 317.17 C 563.92 317.17, 564.70 318.89, 565.69 323.33 C 566.69 327.77, 567.46 338.50, 568.46 341.83 C 569.46 341.83, 570.23 341.83, 571.23 341.83 C 572.23 340.72, 573.00 335.67, 574.00 335.67 C 575.00 336.78, 575.77 348.00, 576.77 348.00 C 577.77 348.00, 578.54 347.88, 579.54 335.67 C 580.54 323.46, 581.31 283.49, 582.31 280.16 C 583.30 280.16, 584.08 306.06, 585.08 317.17 C 586.07 328.27, 586.85 338.50, 587.85 341.83 C 588.84 341.83, 589.62 335.67, 590.62 335.67 C 591.61 336.78, 592.39 345.78, 593.38 348.00 C 594.38 348.00, 595.16 348.00, 596.15 348.00 C 597.15 346.89, 597.93 341.83, 598.92 341.83 C 599.92 341.83, 600.70 346.89, 601.69 348.00 C 602.69 348.00, 603.46 348.00, 604.46 348.00 C 605.46 345.78, 606.23 335.67, 607.23 335.67 C 608.23 335.67, 609.00 348.00, 610.00 348.00 C 611.00 341.34, 611.77 304.21, 612.77 298.66 C 613.77 298.66, 614.54 317.17, 615.54 317.17 C 616.54 309.40, 617.31 255.50, 618.31 255.50 C 619.30 258.83, 620.08 319.02, 621.08 335.67 C 622.07 348.00, 622.85 348.00, 623.85 348.00 C 624.84 345.78, 625.62 331.10, 626.62 323.33 C 627.61 315.56, 628.39 304.83, 629.38 304.83 C 630.38 309.27, 631.16 340.23, 632.15 348.00 C 633.15 348.00, 633.93 348.00, 634.92 348.00 C 635.92 344.67, 636.70 332.83, 637.69 329.50 C 638.69 329.50, 639.46 329.50, 640.46 329.50 C 641.46 331.72, 642.23 339.61, 643.23 341.83 C 644.23 341.83, 645.00 341.83, 646.00 341.83 C 647.00 341.83, 647.77 341.83, 648.77 341.83 C 649.77 341.83, 650.54 341.83, 651.54 341.83 C 652.54 342.94, 653.31 348.00, 654.31 348.00 C 655.30 348.00, 656.08 344.05, 657.08 341.83 C 658.07 339.61, 658.85 335.67, 659.85 335.67 C 660.84 336.78, 661.62 348.00, 662.62 348.00 C 663.61 348.00, 664.39 336.78, 665.38 335.67 C 666.38 335.67, 667.16 340.72, 668.15 341.83 C 669.15 341.83, 669.93 341.83, 670.92 341.83 C 671.92 339.61, 672.70 329.50, 673.69 329.50 C 674.69 329.50, 675.46 340.72, 676.46 341.83 C 677.46 341.83, 678.23 335.67, 679.23 335.67 C 680.23 335.67, 681.00 341.83, 682.00 341.83 C 683.00 341.83, 683.77 335.67, 684.77 335.67 C 685.77 336.78, 686.54 345.78, 687.54 348.00 C 688.54 348.00, 689.31 348.00, 690.31 348.00 C 691.30 348.00, 692.08 348.00, 693.08 348.00 C 694.07 346.89, 694.85 341.83, 695.85 341.83 C 696.84 341.83, 697.62 348.00, 698.62 348.00 C 699.61 348.00, 700.39 346.27, 701.38 341.83 C 702.38 337.39, 703.16 323.33, 704.15 323.33 C 705.15 324.44, 705.93 343.56, 706.92 348.00 C 707.92 348.00, 708.70 348.00, 709.69 348.00 C 710.69 346.89, 711.46 342.94, 712.46 341.83 C 713.46 341.83, 714.23 341.83, 715.23 341.83 C 716.23 339.61, 717.00 329.50, 718.00 329.50 C 719.00 329.50, 719.77 338.50, 720.77 341.83 C 721.77 345.16, 722.54 346.89, 723.54 348.00 C 724.54 348.00, 725.31 348.00, 726.31 348.00 C 727.30 343.56, 728.08 324.44, 729.08 323.33 C 730.07 323.33, 730.85 337.39, 731.85 341.83 C 732.84 346.27, 733.62 348.00, 734.62 348.00 C 735.61 346.89, 736.39 339.00, 737.38 335.67 C 738.38 332.34, 739.16 329.50, 740.15 329.50 C 741.15 331.72, 741.93 345.78, 742.92 348.00 C 743.92 348.00, 744.70 342.94, 745.69 341.83 C 746.69 341.83, 747.46 341.83, 748.46 341.83 C 749.46 342.94, 750.23 348.00, 751.23 348.00 C 752.23 348.00, 753.00 341.83, 754.00 341.83 C 755.00 341.83, 755.77 348.00, 756.77 348.00 C 757.77 348.00, 758.54 341.83, 759.54 341.83 C 760.54 341.83, 761.31 346.89, 762.31 348.00 C 763.30 348.00, 764.08 348.00, 765.08 348.00 C 766.07 348.00, 766.85 348.00, 767.85 348.00 C 768.84 348.00, 769.62 348.00, 770.62 348.00 C 771.61 336.90, 772.39 287.44, 773.38 286.33 C 774.38 286.33, 775.16 331.84, 776.15 341.83 C 777.15 341.83, 777.93 341.83, 778.92 341.83 C 779.92 342.94, 780.70 348.00, 781.69 348.00 C 782.69 348.00, 783.46 341.83, 784.46 341.83 C 785.46 341.83, 786.23 348.00, 787.23 348.00 C 788.23 346.89, 789.00 339.00, 790.00 335.67 C 791.00 332.34, 791.77 329.50, 792.77 329.50 C 793.77 330.61, 794.54 338.50, 795.54 341.83 C 796.54 345.16, 797.31 348.00, 798.31 348.00 C 799.30 348.00, 800.08 342.94, 801.08 341.83 C 802.07 341.83, 802.85 341.83, 803.85 341.83 C 804.84 340.72, 805.62 335.67, 806.62 335.67 C 807.61 335.67, 808.39 340.72, 809.38 341.83 C 810.38 341.83, 811.16 341.83, 812.15 341.83 C 813.15 341.83, 813.93 341.83, 814.92 341.83 C 815.92 342.94, 816.70 346.89, 817.69 348.00 C 818.69 348.00, 819.46 348.00, 820.46 348.00 C 821.46 346.89, 822.23 342.94, 823.23 341.83 C 824.23 341.83, 825.00 341.83, 826.00 341.83 C 827.00 340.72, 827.77 336.78, 828.77 335.67 C 829.77 335.67, 830.54 335.67, 831.54 335.67 C 832.54 336.78, 833.31 339.61, 834.31 341.83 C 835.30 344.05, 836.08 348.00, 837.08 348.00 C 838.07 346.89, 838.85 335.67, 839.85 335.67 C 840.84 335.67, 841.62 348.00, 842.62 348.00 C 843.61 346.89, 844.39 330.61, 845.38 329.50 C 846.38 329.50, 847.16 340.72, 848.15 341.83 C 849.15 341.83, 849.93 335.67, 850.92 335.67 C 851.92 335.67, 852.70 340.72, 853.69 341.83 C 854.69 341.83, 855.46 341.83, 856.46 341.83 C 857.46 340.72, 858.23 336.78, 859.23 335.67 C 860.23 335.67, 861.00 335.67, 862.00 335.67 C 863.00 337.89, 863.77 348.00, 864.77 348.00 C 865.77 345.78, 866.54 324.44, 867.54 323.33 C 868.54 323.33, 869.31 339.61, 870.31 341.83 C 871.30 341.83, 872.08 336.78, 873.08 335.67 C 874.07 335.67, 874.85 335.67, 875.85 335.67 C 876.84 337.89, 877.62 345.78, 878.62 348.00 C 879.61 348.00, 880.39 348.00, 881.38 348.00 C 882.38 345.78, 883.16 337.89, 884.15 335.67 C 885.15 335.67, 885.93 335.67, 886.92 335.67 C 887.92 334.56, 888.70 330.61, 889.69 329.50 C 890.69 329.50, 891.46 329.50, 892.46 329.50 C 893.46 326.17, 894.23 329.50, 895.23 311.00 C 896.23 286.58, 897.00 193.83, 898.00 193.83 C 899.00 196.05, 899.77 297.80, 900.77 323.33 C 901.77 335.67, 902.54 332.34, 903.54 335.67 C 904.54 339.00, 905.31 341.83, 906.31 341.83 C 907.30 326.29, 908.08 269.31, 909.08 249.33 C 910.07 230.83, 910.85 230.83, 911.85 230.83 C 912.84 239.71, 913.62 284.23, 914.62 298.66 C 915.61 311.00, 916.39 307.67, 917.38 311.00 C 918.38 314.33, 919.16 317.17, 920.15 317.17 C 921.15 317.17, 921.93 317.17, 922.92 311.00 C 923.92 301.01, 924.70 261.66, 925.69 261.66 C 926.69 261.66, 927.46 311.00, 928.46 311.00 C 929.46 289.91, 930.23 144.49, 931.23 144.49 C 932.23 148.93, 933.00 299.03, 934.00 335.67 C 935.00 348.00, 935.77 346.89, 936.77 348.00 C 937.77 348.00, 938.54 344.05, 939.54 341.83 C 940.54 339.61, 941.31 339.00, 942.31 335.67 C 943.30 332.34, 944.08 327.77, 945.08 323.33 C 946.07 318.89, 946.85 311.00, 947.85 311.00 C 948.84 312.11, 949.62 322.84, 950.62 329.50 C 951.61 336.16, 952.39 344.67, 953.38 348.00 C 954.38 348.00, 955.16 348.00, 956.15 348.00 C 957.15 348.00, 957.93 348.00, 958.92 348.00 C 959.92 348.00, 960.70 348.00, 961.69 348.00 C 962.69 348.00, 963.46 348.00, 964.46 348.00 C 965.46 342.45, 966.23 322.72, 967.23 317.17 C 968.23 317.17, 969.00 317.17, 970.00 317.17 C 971.00 321.61, 971.77 338.50, 972.77 341.83 C 973.77 341.83, 974.54 335.67, 975.54 335.67 C 976.54 336.78, 977.31 348.00, 978.31 348.00 C 979.30 343.56, 980.08 311.00, 981.08 311.00 C 982.07 311.00, 982.85 343.56, 983.85 348.00 C 984.84 348.00, 985.62 335.67, 986.62 335.67 C 987.61 335.67, 988.39 345.78, 989.38 348.00 C 990.38 348.00, 991.16 348.00, 992.15 348.00 C 993.15 348.00, 993.93 348.00, 994.92 348.00 C 995.92 342.45, 996.70 322.72, 997.69 317.17 C 998.69 317.17, 999.46 317.17, 1000.46 317.17 C 1001.46 321.61, 1002.23 341.83, 1003.23 341.83 C 1004.23 339.61, 1005.00 304.83, 1006.00 304.83 C 1007.00 305.94, 1007.77 340.23, 1008.77 348.00 C 1009.77 348.00, 1010.54 348.00, 1011.54 348.00 C 1012.54 348.00, 1013.31 348.00, 1014.31 348.00 C 1015.30 348.00, 1016.08 348.00, 1017.08 348.00 C 1018.07 348.00, 1018.85 348.00, 1019.85 348.00 C 1020.84 313.59, 1021.62 162.38, 1022.62 156.83 C 1023.61 156.83, 1024.39 282.75, 1025.38 317.17 C 1026.38 348.00, 1027.16 348.00, 1028.15 348.00 C 1029.15 336.90, 1029.93 255.50, 1030.92 255.50 C 1031.92 255.50, 1032.70 331.35, 1033.69 348.00 C 1034.69 348.00, 1035.46 348.00, 1036.46 348.00 C 1037.46 348.00, 1038.23 348.00, 1039.23 348.00 C 1040.23 348.00, 1041.00 348.00, 1042.00 348.00 C 1043.00 348.00, 1043.77 348.00, 1044.77 348.00 C 1045.77 348.00, 1046.54 348.00, 1047.54 348.00 C 1048.54 348.00, 1049.31 348.00, 1050.31 348.00 C 1051.30 348.00, 1052.08 348.00, 1053.08 348.00 C 1054.07 348.00, 1054.85 348.00, 1055.85 348.00 C 1056.84 348.00, 1057.62 348.00, 1058.62 348.00 C 1059.61 348.00, 1060.39 348.00, 1061.38 348.00 C 1062.38 346.89, 1063.16 348.00, 1064.15 341.83 C 1065.15 330.73, 1065.93 286.33, 1066.92 286.33 C 1067.92 286.33, 1068.70 330.73, 1069.69 341.83 C 1070.69 348.00, 1071.46 346.89, 1072.46 348.00 C 1073.46 348.00, 1074.23 348.00, 1075.23 348.00 C 1076.23 348.00, 1077.50 348.00, 1078.00 348.00" fill="none" stroke="#39d353" stroke-width="2.8" stroke-linejoin="round" stroke-linecap="round" vector-effect="non-scaling-stroke"/>
    <circle cx="1078.00" cy="348.00" r="3.2" fill="#39d353" filter="url(#point-glow)"/>
    <text x="70.00" y="389" fill="#8b949e" font-size="12" text-anchor="start" opacity="0.86">Oct 04, 2025</text>
    <text x="238.92" y="389" fill="#8b949e" font-size="12" text-anchor="middle" opacity="0.86">Dec 04, 2025</text>
    <text x="405.08" y="389" fill="#8b949e" font-size="12" text-anchor="middle" opacity="0.86">Feb 02, 2026</text>
    <text x="574.00" y="389" fill="#8b949e" font-size="12" text-anchor="middle" opacity="0.86">Apr 04, 2026</text>
    <text x="742.92" y="389" fill="#8b949e" font-size="12" text-anchor="middle" opacity="0.86">Jun 04, 2026</text>
    <text x="909.08" y="389" fill="#8b949e" font-size="12" text-anchor="middle" opacity="0.86">Aug 03, 2026</text>
    <text x="1078.00" y="389" fill="#8b949e" font-size="12" text-anchor="end" opacity="0.86">Oct 03, 2026</text>
  </g>
</svg>
